<svg width="16" height="16" viewBox="0 0 16 16" fill="none" xmlns="http://www.w3.org/2000/svg">
<mask id="path-1-inside-1_1_2418" fill="white">
<path d="M11.6861 16C5.24203 16 0 10.758 0 4.31394C0.00136562 3.25838 0.386599 2.23934 1.08386 1.44686C1.78113 0.654373 2.74282 0.142536 3.78962 0.00679294C4.00501 -0.0183126 4.22277 0.0265711 4.41067 0.134806C4.59858 0.24304 4.74666 0.408878 4.83302 0.60779L6.5108 4.52262C6.57576 4.67453 6.60213 4.84015 6.58756 5.00472C6.573 5.16929 6.51796 5.32771 6.42733 5.46585L5.0417 7.58604C5.00923 7.63329 4.98981 7.68828 4.98542 7.74544C4.98102 7.8026 4.9918 7.85992 5.01666 7.91158C5.67455 9.26124 6.76862 10.3494 8.12181 11C8.17198 11.025 8.228 11.0359 8.28388 11.0315C8.33976 11.0271 8.39338 11.0076 8.439 10.975L10.5341 9.58101C10.6722 9.4869 10.8318 9.42915 10.9982 9.4131C11.1645 9.39705 11.3322 9.42322 11.4857 9.48919L15.3922 11.167C15.5911 11.2533 15.757 11.4014 15.8652 11.5893C15.9734 11.7772 16.0183 11.995 15.9932 12.2104C15.8575 13.2572 15.3456 14.2189 14.5531 14.9161C13.7607 15.6134 12.7416 15.9986 11.6861 16ZM3.91483 0.66622H3.87309C2.98714 0.7817 2.17342 1.21546 1.58367 1.88661C0.993915 2.55776 0.668384 3.42049 0.667775 4.31394C0.669986 7.23549 1.83155 10.0368 3.8974 12.1026C5.96325 14.1685 8.76451 15.33 11.6861 15.3322C12.5795 15.3316 13.4422 15.0061 14.1134 14.4163C14.7845 13.8266 15.2183 13.0129 15.3338 12.1269C15.3407 12.055 15.3241 11.9827 15.2865 11.921C15.2489 11.8593 15.1922 11.8114 15.1251 11.7847L11.2186 10.1069C11.1678 10.0843 11.1122 10.0748 11.0568 10.0792C11.0015 10.0836 10.948 10.1017 10.9014 10.1319L8.81463 11.5259C8.67127 11.6233 8.50493 11.6814 8.33214 11.6946C8.15936 11.7078 7.98613 11.6755 7.82966 11.601C6.34446 10.8813 5.14271 9.68538 4.41566 8.20373C4.34158 8.04756 4.30882 7.87499 4.32051 7.70253C4.3322 7.53007 4.38795 7.3635 4.48244 7.21876L5.86807 5.09858C5.89904 5.05227 5.9176 4.99878 5.92198 4.94325C5.92637 4.88771 5.91643 4.83198 5.89311 4.78138L4.21533 0.8749C4.19191 0.814013 4.15075 0.761564 4.09717 0.724355C4.04359 0.687145 3.98006 0.666892 3.91483 0.66622Z"/>
</mask>
<path d="M0 4.31394L-1 4.31265V4.31394H0ZM3.78962 0.00679294L3.67384 -0.986566L3.66102 -0.984904L3.78962 0.00679294ZM4.83302 0.60779L5.75218 0.213867L5.7503 0.209556L4.83302 0.60779ZM6.5108 4.52262L7.43028 4.12947L7.42995 4.1287L6.5108 4.52262ZM6.42733 5.46585L5.59119 4.91734L5.59025 4.91878L6.42733 5.46585ZM5.0417 7.58604L5.86586 8.15239L5.87244 8.14283L5.87879 8.13311L5.0417 7.58604ZM5.01666 7.91158L4.11556 8.34523L4.11776 8.34974L5.01666 7.91158ZM8.12181 11L8.56787 10.105L8.56152 10.1019L8.55512 10.0988L8.12181 11ZM8.439 10.975L7.88507 10.1424L7.8714 10.1515L7.85803 10.1611L8.439 10.975ZM10.5341 9.58101L11.0881 10.4136L11.0973 10.4073L10.5341 9.58101ZM11.4857 9.48919L11.0909 10.408L11.0911 10.408L11.4857 9.48919ZM15.3922 11.167L15.7904 10.2497L15.7868 10.2481L15.3922 11.167ZM15.9932 12.2104L16.985 12.339L16.9865 12.3262L15.9932 12.2104ZM3.91483 0.66622L3.92512 -0.333779H3.91483V0.66622ZM3.87309 0.66622V-0.333779H3.8082L3.74384 -0.325391L3.87309 0.66622ZM0.667775 4.31394L-0.332226 4.31326L-0.332225 4.3147L0.667775 4.31394ZM11.6861 15.3322L11.6853 16.3322L11.6867 16.3322L11.6861 15.3322ZM15.3338 12.1269L16.3254 12.2562L16.3275 12.2396L16.3291 12.223L15.3338 12.1269ZM15.1251 11.7847L14.7305 12.7035L14.7425 12.7087L14.7547 12.7136L15.1251 11.7847ZM11.2186 10.1069L10.8128 11.0209L10.824 11.0257L11.2186 10.1069ZM10.9014 10.1319L10.3572 9.29289L10.346 9.30039L10.9014 10.1319ZM8.81463 11.5259L8.25914 10.6943L8.25285 10.6986L8.81463 11.5259ZM7.82966 11.601L7.39353 12.5009L7.39984 12.504L7.82966 11.601ZM4.41566 8.20373L3.51208 8.63236L3.51792 8.64425L4.41566 8.20373ZM4.48244 7.21876L3.64535 6.67169L3.64505 6.67214L4.48244 7.21876ZM5.86807 5.09858L5.03674 4.5427L5.03099 4.5515L5.86807 5.09858ZM5.89311 4.78138L4.97427 5.17601L4.97943 5.18802L4.9849 5.1999L5.89311 4.78138ZM4.21533 0.8749L3.28196 1.23382L3.28888 1.25182L3.29649 1.26953L4.21533 0.8749ZM11.6861 15C5.79432 15 1 10.2057 1 4.31394H-1C-1 11.3103 4.68975 17 11.6861 17V15ZM0.999999 4.31523C1.00105 3.50239 1.2977 2.71768 1.83463 2.10742L0.333092 0.786296C-0.524505 1.76101 -0.99832 3.01437 -0.999999 4.31265L0.999999 4.31523ZM1.83463 2.10742C2.37157 1.49716 3.11213 1.10302 3.91822 0.99849L3.66102 -0.984904C2.37352 -0.817947 1.19069 -0.188417 0.333092 0.786296L1.83463 2.10742ZM3.9054 1.00007C3.90753 0.99982 3.90969 1.00026 3.91155 1.00134L4.9098 -0.731726C4.53584 -0.947122 4.1025 -1.03644 3.67385 -0.986483L3.9054 1.00007ZM3.91155 1.00134C3.91341 1.00241 3.91488 1.00405 3.91574 1.00602L5.7503 0.209556C5.57845 -0.186298 5.28375 -0.51633 4.9098 -0.731726L3.91155 1.00134ZM3.91388 1.00171L5.59166 4.91654L7.42995 4.1287L5.75217 0.213871L3.91388 1.00171ZM5.59133 4.91577L5.59146 4.91657L7.58367 5.09287C7.61278 4.764 7.56008 4.43304 7.43028 4.12947L5.59133 4.91577ZM5.59146 4.91657L5.59119 4.91734L7.26347 6.01437C7.44457 5.73831 7.55457 5.42174 7.58367 5.09287L5.59146 4.91657ZM5.59025 4.91878L4.20461 7.03896L5.87879 8.13311L7.26442 6.01292L5.59025 4.91878ZM4.21754 7.01968C4.08532 7.21208 4.00627 7.43598 3.98836 7.66874L5.98247 7.82214C5.97336 7.94057 5.93313 8.0545 5.86586 8.15239L4.21754 7.01968ZM3.98836 7.66874C3.97046 7.9015 4.01434 8.13486 4.11557 8.34522L5.91774 7.47793C5.96925 7.58497 5.99158 7.70371 5.98247 7.82214L3.98836 7.66874ZM4.11776 8.34974C4.8743 9.90177 6.13241 11.1531 7.6885 11.9013L8.55512 10.0988C7.40483 9.54574 6.4748 8.62071 5.91555 7.47341L4.11776 8.34974ZM7.67576 11.895C7.88836 12.001 8.12579 12.0471 8.36258 12.0284L8.20518 10.0346C8.33022 10.0247 8.4556 10.0491 8.56787 10.105L7.67576 11.895ZM8.36258 12.0284C8.59938 12.0097 8.82663 11.9269 9.01998 11.7889L7.85803 10.1611C7.96013 10.0882 8.08013 10.0445 8.20518 10.0346L8.36258 12.0284ZM8.99294 11.8076L11.0881 10.4136L9.98021 8.74845L7.88507 10.1424L8.99294 11.8076ZM11.0973 10.4073C11.0964 10.408 11.0953 10.4084 11.0942 10.4085L10.9021 8.41772C10.5683 8.44993 10.2481 8.56583 9.97096 8.75468L11.0973 10.4073ZM11.0942 10.4085C11.0931 10.4086 11.092 10.4084 11.0909 10.408L11.8805 8.57043C11.5724 8.43804 11.2359 8.38551 10.9021 8.41772L11.0942 10.4085ZM11.0911 10.408L14.9976 12.0858L15.7868 10.2481L11.8804 8.57036L11.0911 10.408ZM14.994 12.0843C14.9959 12.0851 14.9976 12.0866 14.9987 12.0884L16.7317 11.0902C16.5163 10.7163 16.1863 10.4216 15.7904 10.2497L14.994 12.0843ZM14.9987 12.0884C14.9997 12.0903 15.0002 12.0925 14.9999 12.0946L16.9865 12.3262C17.0364 11.8975 16.9471 11.4642 16.7317 11.0902L14.9987 12.0884ZM15.0015 12.0818C14.897 12.8879 14.5028 13.6284 13.8926 14.1654L15.2137 15.6669C16.1884 14.8093 16.8179 13.6265 16.9849 12.339L15.0015 12.0818ZM13.8926 14.1654C13.2823 14.7023 12.4976 14.9989 11.6848 15L11.6874 17C12.9856 16.9983 14.239 16.5245 15.2137 15.6669L13.8926 14.1654ZM3.91483 -0.333779H3.87309V1.66622H3.91483V-0.333779ZM3.74384 -0.325391C2.61721 -0.178541 1.58244 0.373047 0.832477 1.22652L2.33486 2.54669C2.7644 2.05786 3.35707 1.74194 4.00235 1.65783L3.74384 -0.325391ZM0.832477 1.22652C0.0825133 2.08 -0.33145 3.1771 -0.332225 4.31326L1.66777 4.31462C1.66822 3.66389 1.90532 3.03552 2.33486 2.54669L0.832477 1.22652ZM-0.332225 4.3147C-0.329814 7.5012 0.937089 10.5565 3.19029 12.8097L4.6045 11.3955C2.726 9.517 1.66978 6.96978 1.66777 4.31318L-0.332225 4.3147ZM3.19029 12.8097C5.44349 15.0629 8.4988 16.3298 11.6853 16.3322L11.6868 14.3322C9.03022 14.3302 6.483 13.274 4.6045 11.3955L3.19029 12.8097ZM11.6867 16.3322C12.8229 16.3314 13.92 15.9175 14.7735 15.1675L13.4533 13.6651C12.9645 14.0947 12.3361 14.3318 11.6854 14.3322L11.6867 16.3322ZM14.7735 15.1675C15.627 14.4176 16.1785 13.3828 16.3254 12.2562L14.3422 11.9977C14.2581 12.6429 13.9421 13.2356 13.4533 13.6651L14.7735 15.1675ZM16.3291 12.223C16.3569 11.9356 16.2906 11.6469 16.1403 11.4004L14.4327 12.4416C14.3576 12.3185 14.3245 12.1743 14.3384 12.0308L16.3291 12.223ZM16.1403 11.4004C15.99 11.1538 15.7637 10.9627 15.4955 10.8558L14.7547 12.7136C14.6208 12.6601 14.5078 12.5647 14.4327 12.4416L16.1403 11.4004ZM15.5197 10.8658L11.6132 9.18805L10.824 11.0257L14.7305 12.7035L15.5197 10.8658ZM11.6244 9.19293C11.4216 9.10285 11.1994 9.06483 10.9781 9.0823L11.1355 11.0761C11.025 11.0848 10.9141 11.0658 10.8128 11.0208L11.6244 9.19293ZM10.9781 9.0823C10.7569 9.09977 10.5434 9.17218 10.3572 9.29297L11.4456 10.9709C11.3526 11.0312 11.2461 11.0674 11.1355 11.0761L10.9781 9.0823ZM10.346 9.30039L8.25916 10.6944L9.3701 12.3574L11.4569 10.9635L10.346 9.30039ZM8.25285 10.6986C8.25381 10.698 8.25493 10.6976 8.25609 10.6975L8.40819 12.6917C8.75494 12.6652 9.08873 12.5485 9.37641 12.3532L8.25285 10.6986ZM8.25609 10.6975C8.25726 10.6974 8.25842 10.6976 8.25948 10.6981L7.39984 12.504C7.71383 12.6534 8.06145 12.7181 8.40819 12.6917L8.25609 10.6975ZM8.26578 10.7011C6.9814 10.0787 5.94214 9.04451 5.3134 7.76321L3.51792 8.64425C4.34327 10.3262 5.70753 11.6838 7.39354 12.5009L8.26578 10.7011ZM5.31916 7.77514C5.31843 7.77359 5.3181 7.77188 5.31822 7.77017L3.3228 7.63489C3.29953 7.97809 3.36473 8.32152 3.51216 8.63232L5.31916 7.77514ZM5.31822 7.77017C5.31833 7.76846 5.31888 7.76681 5.31982 7.76538L3.64505 6.67214C3.45702 6.9602 3.34607 7.29169 3.3228 7.63489L5.31822 7.77017ZM5.31952 7.76583L6.70516 5.64565L5.03099 4.5515L3.64535 6.67169L5.31952 7.76583ZM6.69936 5.65442C6.82545 5.46585 6.90103 5.24808 6.91888 5.02195L4.92509 4.86454C4.93417 4.74949 4.97263 4.63868 5.03678 4.54273L6.69936 5.65442ZM6.91888 5.02195C6.93674 4.79581 6.89626 4.56888 6.80132 4.36287L4.9849 5.1999C4.9366 5.09507 4.916 4.97961 4.92509 4.86454L6.91888 5.02195ZM6.81195 4.38675L5.13417 0.48027L3.29649 1.26953L4.97427 5.17601L6.81195 4.38675ZM5.1487 0.515979C5.05336 0.268056 4.88574 0.0544944 4.66756 -0.0970152L3.52677 1.54572C3.41576 1.46863 3.33047 1.35997 3.28196 1.23382L5.1487 0.515979ZM4.66756 -0.0970152C4.44939 -0.248524 4.19073 -0.330993 3.92512 -0.333727L3.90454 1.66617C3.76939 1.66478 3.63778 1.62281 3.52677 1.54572L4.66756 -0.0970152Z" fill="#278808" mask="url(#path-1-inside-1_1_2418)"/>
</svg>
