<svg width="17" height="15" viewBox="0 0 17 15" fill="none" xmlns="http://www.w3.org/2000/svg">
<path d="M1.51761 8.50824L7.9481 14.6479C8.16961 14.8594 8.28036 14.9652 8.41095 14.9912C8.46976 15.0029 8.53025 15.0029 8.58906 14.9912C8.71964 14.9652 8.83039 14.8594 9.0519 14.6479L15.4824 8.50824C17.2917 6.78079 17.5114 3.93809 15.9897 1.94469L15.7036 1.56987C13.8832 -0.814806 10.2292 -0.414878 8.95012 2.30904C8.76944 2.69381 8.23056 2.69381 8.04988 2.30904C6.77078 -0.414878 3.11681 -0.814802 1.29644 1.56988L1.01031 1.94469C-0.511374 3.9381 -0.291663 6.78079 1.51761 8.50824Z" fill="#DD1C1A"/>
</svg>
