<svg width="18" height="18" viewBox="0 0 18 18" fill="none" xmlns="http://www.w3.org/2000/svg">
<path d="M2.52236 16.6904L2.52237 16.6904L2.54415 16.6849L2.54416 16.6849L5.91723 15.8417C5.93236 15.8379 5.94736 15.8341 5.96226 15.8304C6.18499 15.775 6.38216 15.7259 6.56119 15.6246C6.74022 15.5232 6.88374 15.3794 7.04587 15.2169C7.05671 15.206 7.06764 15.1951 7.07866 15.1841L15.9143 6.34844L15.9394 6.32332L15.9394 6.32332L15.9627 6.30005C16.2761 5.98664 16.5462 5.71661 16.7334 5.47128C16.934 5.20836 17.0858 4.91594 17.0858 4.55556C17.0858 4.19517 16.934 3.90275 16.7334 3.63983C16.5462 3.39449 16.2761 3.12445 15.9627 2.81104L15.9394 2.78779L15.2123 2.06066L15.189 2.03739C14.8756 1.72395 14.6056 1.45388 14.3602 1.2667C14.0973 1.0661 13.8049 0.914214 13.4445 0.914214C13.0841 0.914214 12.7917 1.0661 12.5288 1.2667C12.2834 1.45388 12.0134 1.72394 11.7 2.03738L11.6767 2.06066L2.816 10.9214C2.80497 10.9324 2.79403 10.9433 2.78316 10.9542C2.62069 11.1163 2.47687 11.2598 2.3755 11.4389C2.27413 11.6179 2.22506 11.8151 2.16963 12.0378C2.16592 12.0527 2.16219 12.0677 2.15841 12.0828L1.30969 15.4777C1.30748 15.4865 1.30525 15.4955 1.30301 15.5044C1.26377 15.6611 1.22186 15.8284 1.20811 15.9689C1.19297 16.1237 1.1965 16.3847 1.40591 16.5941C1.61532 16.8036 1.87638 16.8071 2.03111 16.7919C2.17164 16.7782 2.33898 16.7363 2.49566 16.6971C2.5046 16.6948 2.5135 16.6926 2.52236 16.6904Z" stroke="#010C10"/>
</svg>
