<svg width="36" height="36" viewBox="0 0 36 36" fill="none" xmlns="http://www.w3.org/2000/svg">
<rect width="36" height="36" rx="18" fill="#F0C808"/>
<path d="M11.5223 25.6904L11.5224 25.6904L11.5441 25.6849L11.5441 25.6849L14.9172 24.8417C14.9323 24.8379 14.9473 24.8341 14.9622 24.8304C15.185 24.775 15.3821 24.7259 15.5612 24.6246C15.7402 24.5232 15.8837 24.3794 16.0459 24.2169C16.0567 24.206 16.0676 24.1951 16.0786 24.1841L24.9143 15.3484L24.9394 15.3233L24.9394 15.3233L24.9627 15.3C25.2761 14.9866 25.5462 14.7166 25.7333 14.4713C25.9339 14.2084 26.0858 13.9159 26.0858 13.5556C26.0858 13.1952 25.9339 12.9027 25.7333 12.6398C25.5462 12.3945 25.2761 12.1245 24.9626 11.811L24.9394 11.7878L24.2123 11.0607L24.189 11.0374C23.8756 10.7239 23.6055 10.4539 23.3602 10.2667C23.0973 10.0661 22.8049 9.91421 22.4445 9.91421C22.0841 9.91421 21.7917 10.0661 21.5288 10.2667C21.2834 10.4539 21.0134 10.7239 20.7 11.0374L20.6767 11.0607L11.816 19.9214C11.805 19.9324 11.794 19.9433 11.7831 19.9542C11.6207 20.1163 11.4769 20.2598 11.3755 20.4389C11.2741 20.6179 11.225 20.8151 11.1696 21.0378C11.1659 21.0527 11.1622 21.0677 11.1584 21.0828L10.3097 24.4777C10.3075 24.4865 10.3052 24.4955 10.303 24.5044C10.2638 24.6611 10.2218 24.8284 10.2081 24.9689C10.193 25.1237 10.1965 25.3847 10.4059 25.5941C10.6153 25.8036 10.8764 25.8071 11.0311 25.7919C11.1716 25.7782 11.339 25.7363 11.4956 25.6971C11.5046 25.6948 11.5135 25.6926 11.5223 25.6904Z" stroke="#010C10"/>
</svg>
