<svg width="40" height="40" viewBox="0 0 40 40" fill="none" xmlns="http://www.w3.org/2000/svg">
<g opacity="0.9">
<circle cx="20" cy="20" r="19.5" fill="#868686" stroke="white"/>
<path fill-rule="evenodd" clip-rule="evenodd" d="M21.9838 10.5416C22.0711 10.7109 22.0928 10.9278 22.1361 11.3614C22.2182 12.1823 22.2593 12.5927 22.4311 12.8179C22.649 13.1036 23.0034 13.2504 23.3595 13.2025C23.6402 13.1647 23.9594 12.9035 24.5979 12.3811C24.9352 12.1051 25.1038 11.9672 25.2853 11.9092C25.5158 11.8355 25.7652 11.848 25.9872 11.9442C26.162 12.0199 26.3161 12.174 26.6243 12.4822L27.5178 13.3757C27.8259 13.6839 27.98 13.8379 28.0558 14.0128C28.152 14.2348 28.1644 14.4841 28.0908 14.7146C28.0328 14.8961 27.8948 15.0648 27.6188 15.4021C27.0964 16.0406 26.8352 16.3598 26.7975 16.6406C26.7496 16.9966 26.8964 17.351 27.182 17.5689C27.4072 17.7407 27.8176 17.7818 28.6385 17.8639C29.0722 17.9072 29.2891 17.9289 29.4584 18.0162C29.6734 18.1272 29.841 18.3123 29.9299 18.5373C30 18.7145 30 18.9324 30 19.3682V20.6319C30 21.0676 30 21.2855 29.93 21.4626C29.841 21.6877 29.6734 21.8729 29.4583 21.9838C29.289 22.0711 29.0722 22.0928 28.6386 22.1361L28.6386 22.1361C27.818 22.2182 27.4077 22.2592 27.1825 22.4309C26.8967 22.6489 26.7499 23.0034 26.7979 23.3596C26.8357 23.6402 27.0968 23.9593 27.619 24.5976C27.8949 24.9348 28.0328 25.1034 28.0908 25.2848C28.1645 25.5154 28.152 25.7648 28.0558 25.9869C27.98 26.1617 27.826 26.3157 27.5179 26.6238L26.6243 27.5174C26.3162 27.8255 26.1621 27.9796 25.9873 28.0554C25.7652 28.1516 25.5159 28.164 25.2854 28.0904C25.1039 28.0324 24.9352 27.8944 24.5979 27.6184L24.5979 27.6184C23.9594 27.096 23.6402 26.8348 23.3595 26.7971C23.0034 26.7492 22.649 26.896 22.4311 27.1816C22.2593 27.4068 22.2183 27.8173 22.1362 28.6383C22.0928 29.0722 22.0711 29.2891 21.9837 29.4585C21.8728 29.6735 21.6877 29.8409 21.4628 29.9299C21.2856 30 21.0676 30 20.6316 30H19.3682C18.9324 30 18.7145 30 18.5373 29.9299C18.3123 29.841 18.1272 29.6734 18.0162 29.4584C17.9289 29.2891 17.9072 29.0722 17.8639 28.6385C17.7818 27.8176 17.7407 27.4072 17.5689 27.182C17.351 26.8964 16.9966 26.7496 16.6406 26.7975C16.3599 26.8352 16.0406 27.0964 15.4021 27.6189L15.4021 27.6189C15.0647 27.8949 14.8961 28.0329 14.7146 28.0908C14.4841 28.1645 14.2347 28.152 14.0127 28.0558C13.8379 27.9801 13.6838 27.826 13.3756 27.5178L12.4822 26.6243C12.174 26.3162 12.0199 26.1621 11.9441 25.9873C11.8479 25.7652 11.8355 25.5159 11.9091 25.2854C11.9671 25.1039 12.1051 24.9352 12.3811 24.5979C12.9035 23.9594 13.1647 23.6402 13.2025 23.3594C13.2504 23.0034 13.1036 22.649 12.8179 22.4311C12.5927 22.2593 12.1823 22.2182 11.3614 22.1361C10.9278 22.0928 10.7109 22.0711 10.5416 21.9838C10.3266 21.8728 10.159 21.6877 10.07 21.4627C10 21.2855 10 21.0676 10 20.6318V19.3683C10 18.9324 10 18.7144 10.0701 18.5372C10.159 18.3123 10.3265 18.1272 10.5415 18.0163C10.7109 17.9289 10.9278 17.9072 11.3616 17.8638H11.3616H11.3616C12.1826 17.7817 12.5932 17.7407 12.8184 17.5688C13.104 17.3509 13.2507 16.9966 13.2029 16.6407C13.1651 16.3599 12.9039 16.0405 12.3813 15.4018C12.1052 15.0643 11.9671 14.8956 11.9091 14.7141C11.8356 14.4836 11.848 14.2344 11.9441 14.0124C12.0199 13.8375 12.174 13.6834 12.4823 13.3751L13.3757 12.4818L13.3757 12.4818C13.6839 12.1736 13.8379 12.0195 14.0128 11.9437C14.2348 11.8475 14.4841 11.8351 14.7146 11.9087C14.8961 11.9667 15.0648 12.1047 15.4022 12.3808C16.0406 12.9031 16.3598 13.1643 16.6404 13.2021C16.9966 13.25 17.3511 13.1032 17.5691 12.8174C17.7408 12.5923 17.7818 12.1819 17.8639 11.3613C17.9072 10.9278 17.9289 10.711 18.0162 10.5417C18.1271 10.3266 18.3123 10.159 18.5374 10.07C18.7145 10 18.9324 10 19.3681 10H20.6318C21.0676 10 21.2855 10 21.4627 10.07C21.6877 10.159 21.8728 10.3266 21.9838 10.5416ZM20 24C22.2091 24 24 22.2091 24 20C24 17.7909 22.2091 16 20 16C17.7909 16 16 17.7909 16 20C16 22.2091 17.7909 24 20 24Z" fill="white"/>
</g>
</svg>
