<svg width="17" height="16" viewBox="0 0 17 16" fill="none" xmlns="http://www.w3.org/2000/svg">
<mask id="path-1-inside-1_1_2424" fill="white">
<path d="M10.8409 6.22222C11.662 6.22222 12.3284 6.91911 12.3284 7.77778V11.9991C12.3284 13.0602 11.9253 14.0779 11.2078 14.8282C10.4903 15.5785 9.51723 16 8.50255 16C7.48787 16 6.51475 15.5785 5.79727 14.8282C5.07978 14.0779 4.6767 13.0602 4.6767 11.9991V7.77778C4.6767 6.91911 5.34225 6.22222 6.1642 6.22222H10.8409ZM10.8409 7.55556H6.1642C6.10784 7.55556 6.05379 7.57897 6.01394 7.62064C5.97409 7.66232 5.9517 7.71884 5.9517 7.77778V11.9991C5.9517 12.7066 6.22045 13.3851 6.69883 13.8854C7.1772 14.3856 7.82602 14.6667 8.50255 14.6667C9.17908 14.6667 9.8279 14.3856 10.3063 13.8854C10.7847 13.3851 11.0534 12.7066 11.0534 11.9991V7.77778C11.0534 7.71884 11.031 7.66232 10.9912 7.62064C10.9513 7.57897 10.8973 7.55556 10.8409 7.55556ZM1.4875 6.22222H4.36135C4.06147 6.60097 3.87833 7.06582 3.83605 7.55556H1.4875C1.43114 7.55556 1.37709 7.57897 1.33724 7.62064C1.29739 7.66232 1.275 7.71884 1.275 7.77778V10.6658C1.27495 11.0017 1.34768 11.3332 1.48773 11.6355C1.62779 11.9378 1.83152 12.2029 2.08363 12.4111C2.33574 12.6192 2.62968 12.7649 2.94335 12.8372C3.25703 12.9095 3.58229 12.9065 3.8947 12.8284C3.96695 13.2764 4.0987 13.704 4.27975 14.1013C3.77594 14.2423 3.24788 14.2602 2.7364 14.1536C2.22492 14.0471 1.74373 13.8189 1.33004 13.4868C0.916339 13.1547 0.581221 12.7276 0.350594 12.2384C0.119967 11.7492 1.04548e-05 11.2112 0 10.6658V7.77778C0 6.91911 0.6664 6.22222 1.4875 6.22222ZM12.6438 6.22222H15.5125C16.3336 6.22222 17 6.91911 17 7.77778V10.6667C17.0001 11.2117 16.8804 11.7495 16.6501 12.2384C16.4199 12.7274 16.0852 13.1544 15.6719 13.4865C15.2587 13.8187 14.778 14.047 14.2669 14.1539C13.7558 14.2608 13.2281 14.2435 12.7245 14.1031C12.9064 13.7049 13.0381 13.2773 13.1112 12.8293C13.4233 12.9065 13.7479 12.9087 14.0609 12.836C14.3739 12.7633 14.6671 12.6174 14.9185 12.4094C15.17 12.2013 15.3731 11.9365 15.5128 11.6347C15.6525 11.3329 15.725 11.002 15.725 10.6667V7.77778C15.725 7.71884 15.7026 7.66232 15.6628 7.62064C15.6229 7.57897 15.5689 7.55556 15.5125 7.55556H13.1691C13.1268 7.06582 12.9436 6.60097 12.6438 6.22222ZM8.5 0C9.1763 0 9.82491 0.280952 10.3031 0.781049C10.7813 1.28115 11.05 1.95942 11.05 2.66667C11.05 3.37391 10.7813 4.05219 10.3031 4.55229C9.82491 5.05238 9.1763 5.33333 8.5 5.33333C7.8237 5.33333 7.1751 5.05238 6.69688 4.55229C6.21866 4.05219 5.95 3.37391 5.95 2.66667C5.95 1.95942 6.21866 1.28115 6.69688 0.781049C7.1751 0.280952 7.8237 0 8.5 0ZM14.025 0.888889C14.5886 0.888889 15.1291 1.12302 15.5276 1.53976C15.9261 1.95651 16.15 2.52174 16.15 3.11111C16.15 3.70048 15.9261 4.26571 15.5276 4.68246C15.1291 5.09921 14.5886 5.33333 14.025 5.33333C13.4614 5.33333 12.9209 5.09921 12.5224 4.68246C12.1239 4.26571 11.9 3.70048 11.9 3.11111C11.9 2.52174 12.1239 1.95651 12.5224 1.53976C12.9209 1.12302 13.4614 0.888889 14.025 0.888889ZM2.975 0.888889C3.53859 0.888889 4.07909 1.12302 4.4776 1.53976C4.87612 1.95651 5.1 2.52174 5.1 3.11111C5.1 3.70048 4.87612 4.26571 4.4776 4.68246C4.07909 5.09921 3.53859 5.33333 2.975 5.33333C2.41142 5.33333 1.87091 5.09921 1.4724 4.68246C1.07388 4.26571 0.85 3.70048 0.85 3.11111C0.85 2.52174 1.07388 1.95651 1.4724 1.53976C1.87091 1.12302 2.41142 0.888889 2.975 0.888889ZM8.5 1.33333C8.16185 1.33333 7.83755 1.47381 7.59844 1.72386C7.35933 1.97391 7.225 2.31304 7.225 2.66667C7.225 3.02029 7.35933 3.35943 7.59844 3.60948C7.83755 3.85952 8.16185 4 8.5 4C8.83815 4 9.16245 3.85952 9.40156 3.60948C9.64067 3.35943 9.775 3.02029 9.775 2.66667C9.775 2.31304 9.64067 1.97391 9.40156 1.72386C9.16245 1.47381 8.83815 1.33333 8.5 1.33333ZM14.025 2.22222C13.7996 2.22222 13.5834 2.31587 13.424 2.48257C13.2646 2.64927 13.175 2.87536 13.175 3.11111C13.175 3.34686 13.2646 3.57295 13.424 3.73965C13.5834 3.90635 13.7996 4 14.025 4C14.2504 4 14.4666 3.90635 14.626 3.73965C14.7854 3.57295 14.875 3.34686 14.875 3.11111C14.875 2.87536 14.7854 2.64927 14.626 2.48257C14.4666 2.31587 14.2504 2.22222 14.025 2.22222ZM2.975 2.22222C2.74957 2.22222 2.53337 2.31587 2.37396 2.48257C2.21455 2.64927 2.125 2.87536 2.125 3.11111C2.125 3.34686 2.21455 3.57295 2.37396 3.73965C2.53337 3.90635 2.74957 4 2.975 4C3.20043 4 3.41663 3.90635 3.57604 3.73965C3.73545 3.57295 3.825 3.34686 3.825 3.11111C3.825 2.87536 3.73545 2.64927 3.57604 2.48257C3.41663 2.31587 3.20043 2.22222 2.975 2.22222Z"/>
</mask>
<path d="M10.8409 6.22222C11.662 6.22222 12.3284 6.91911 12.3284 7.77778V11.9991C12.3284 13.0602 11.9253 14.0779 11.2078 14.8282C10.4903 15.5785 9.51723 16 8.50255 16C7.48787 16 6.51475 15.5785 5.79727 14.8282C5.07978 14.0779 4.6767 13.0602 4.6767 11.9991V7.77778C4.6767 6.91911 5.34225 6.22222 6.1642 6.22222H10.8409ZM10.8409 7.55556H6.1642C6.10784 7.55556 6.05379 7.57897 6.01394 7.62064C5.97409 7.66232 5.9517 7.71884 5.9517 7.77778V11.9991C5.9517 12.7066 6.22045 13.3851 6.69883 13.8854C7.1772 14.3856 7.82602 14.6667 8.50255 14.6667C9.17908 14.6667 9.8279 14.3856 10.3063 13.8854C10.7847 13.3851 11.0534 12.7066 11.0534 11.9991V7.77778C11.0534 7.71884 11.031 7.66232 10.9912 7.62064C10.9513 7.57897 10.8973 7.55556 10.8409 7.55556ZM1.4875 6.22222H4.36135C4.06147 6.60097 3.87833 7.06582 3.83605 7.55556H1.4875C1.43114 7.55556 1.37709 7.57897 1.33724 7.62064C1.29739 7.66232 1.275 7.71884 1.275 7.77778V10.6658C1.27495 11.0017 1.34768 11.3332 1.48773 11.6355C1.62779 11.9378 1.83152 12.2029 2.08363 12.4111C2.33574 12.6192 2.62968 12.7649 2.94335 12.8372C3.25703 12.9095 3.58229 12.9065 3.8947 12.8284C3.96695 13.2764 4.0987 13.704 4.27975 14.1013C3.77594 14.2423 3.24788 14.2602 2.7364 14.1536C2.22492 14.0471 1.74373 13.8189 1.33004 13.4868C0.916339 13.1547 0.581221 12.7276 0.350594 12.2384C0.119967 11.7492 1.04548e-05 11.2112 0 10.6658V7.77778C0 6.91911 0.6664 6.22222 1.4875 6.22222ZM12.6438 6.22222H15.5125C16.3336 6.22222 17 6.91911 17 7.77778V10.6667C17.0001 11.2117 16.8804 11.7495 16.6501 12.2384C16.4199 12.7274 16.0852 13.1544 15.6719 13.4865C15.2587 13.8187 14.778 14.047 14.2669 14.1539C13.7558 14.2608 13.2281 14.2435 12.7245 14.1031C12.9064 13.7049 13.0381 13.2773 13.1112 12.8293C13.4233 12.9065 13.7479 12.9087 14.0609 12.836C14.3739 12.7633 14.6671 12.6174 14.9185 12.4094C15.17 12.2013 15.3731 11.9365 15.5128 11.6347C15.6525 11.3329 15.725 11.002 15.725 10.6667V7.77778C15.725 7.71884 15.7026 7.66232 15.6628 7.62064C15.6229 7.57897 15.5689 7.55556 15.5125 7.55556H13.1691C13.1268 7.06582 12.9436 6.60097 12.6438 6.22222ZM8.5 0C9.1763 0 9.82491 0.280952 10.3031 0.781049C10.7813 1.28115 11.05 1.95942 11.05 2.66667C11.05 3.37391 10.7813 4.05219 10.3031 4.55229C9.82491 5.05238 9.1763 5.33333 8.5 5.33333C7.8237 5.33333 7.1751 5.05238 6.69688 4.55229C6.21866 4.05219 5.95 3.37391 5.95 2.66667C5.95 1.95942 6.21866 1.28115 6.69688 0.781049C7.1751 0.280952 7.8237 0 8.5 0ZM14.025 0.888889C14.5886 0.888889 15.1291 1.12302 15.5276 1.53976C15.9261 1.95651 16.15 2.52174 16.15 3.11111C16.15 3.70048 15.9261 4.26571 15.5276 4.68246C15.1291 5.09921 14.5886 5.33333 14.025 5.33333C13.4614 5.33333 12.9209 5.09921 12.5224 4.68246C12.1239 4.26571 11.9 3.70048 11.9 3.11111C11.9 2.52174 12.1239 1.95651 12.5224 1.53976C12.9209 1.12302 13.4614 0.888889 14.025 0.888889ZM2.975 0.888889C3.53859 0.888889 4.07909 1.12302 4.4776 1.53976C4.87612 1.95651 5.1 2.52174 5.1 3.11111C5.1 3.70048 4.87612 4.26571 4.4776 4.68246C4.07909 5.09921 3.53859 5.33333 2.975 5.33333C2.41142 5.33333 1.87091 5.09921 1.4724 4.68246C1.07388 4.26571 0.85 3.70048 0.85 3.11111C0.85 2.52174 1.07388 1.95651 1.4724 1.53976C1.87091 1.12302 2.41142 0.888889 2.975 0.888889ZM8.5 1.33333C8.16185 1.33333 7.83755 1.47381 7.59844 1.72386C7.35933 1.97391 7.225 2.31304 7.225 2.66667C7.225 3.02029 7.35933 3.35943 7.59844 3.60948C7.83755 3.85952 8.16185 4 8.5 4C8.83815 4 9.16245 3.85952 9.40156 3.60948C9.64067 3.35943 9.775 3.02029 9.775 2.66667C9.775 2.31304 9.64067 1.97391 9.40156 1.72386C9.16245 1.47381 8.83815 1.33333 8.5 1.33333ZM14.025 2.22222C13.7996 2.22222 13.5834 2.31587 13.424 2.48257C13.2646 2.64927 13.175 2.87536 13.175 3.11111C13.175 3.34686 13.2646 3.57295 13.424 3.73965C13.5834 3.90635 13.7996 4 14.025 4C14.2504 4 14.4666 3.90635 14.626 3.73965C14.7854 3.57295 14.875 3.34686 14.875 3.11111C14.875 2.87536 14.7854 2.64927 14.626 2.48257C14.4666 2.31587 14.2504 2.22222 14.025 2.22222ZM2.975 2.22222C2.74957 2.22222 2.53337 2.31587 2.37396 2.48257C2.21455 2.64927 2.125 2.87536 2.125 3.11111C2.125 3.34686 2.21455 3.57295 2.37396 3.73965C2.53337 3.90635 2.74957 4 2.975 4C3.20043 4 3.41663 3.90635 3.57604 3.73965C3.73545 3.57295 3.825 3.34686 3.825 3.11111C3.825 2.87536 3.73545 2.64927 3.57604 2.48257C3.41663 2.31587 3.20043 2.22222 2.975 2.22222Z" stroke="#278808" stroke-width="2" mask="url(#path-1-inside-1_1_2424)"/>
</svg>
