<svg width="60" height="60" viewBox="0 0 60 60" fill="none" xmlns="http://www.w3.org/2000/svg">
<rect width="60" height="60" rx="30" fill="#F0C808"/>
<path d="M18.356 32.3639C18.8572 29.357 19.1077 27.8536 19.754 26.6688C20.7062 24.9234 22.2743 23.595 24.1526 22.9427C25.4274 22.5 26.9516 22.5 30 22.5C33.0484 22.5 34.5726 22.5 35.8474 22.9427C37.7257 23.595 39.2938 24.9234 40.246 26.6688C40.8923 27.8536 41.1428 29.357 41.644 32.3639L41.9013 33.9078C42.0767 34.9602 42.1644 35.4864 42.3165 35.9861C42.5965 36.9055 43.0398 37.767 43.6253 38.5292C43.9435 38.9435 44.3207 39.3207 45.0751 40.0751C45.6728 40.6728 45.9717 40.9717 46.044 41.214C46.1795 41.6679 45.9779 42.1546 45.5611 42.3798C45.3387 42.5 44.916 42.5 44.0707 42.5H15.9294C15.084 42.5 14.6613 42.5 14.4389 42.3798C14.0221 42.1546 13.8205 41.6679 13.956 41.214C14.0283 40.9717 14.3272 40.6728 14.9249 40.0751C15.6793 39.3207 16.0565 38.9435 16.3747 38.5292C16.9602 37.767 17.4035 36.9055 17.6835 35.9861C17.8356 35.4864 17.9233 34.9602 18.0987 33.9078L18.356 32.3639Z" fill="white" stroke="white" stroke-width="1.2"/>
<path d="M27.5 22.5L30 7.5" stroke="white" stroke-width="1.2" stroke-linecap="round"/>
<path d="M32.5 22.5L30 7.5" stroke="white" stroke-width="1.2" stroke-linecap="round"/>
<path d="M25.1704 48.147C25.4552 48.6786 26.083 49.1484 26.9562 49.4834C27.8294 49.8184 28.8993 50 30 50C31.1007 50 32.1706 49.8184 33.0438 49.4834C33.917 49.1484 34.5448 48.6786 34.8296 48.147" stroke="white" stroke-width="1.2" stroke-linecap="round"/>
</svg>
