<svg width="16" height="16" viewBox="0 0 16 16" fill="none" xmlns="http://www.w3.org/2000/svg">
<path d="M1.77778 16C1.28889 16 0.870222 15.8435 0.521778 15.5304C0.173926 15.2168 0 14.84 0 14.4V3.2C0 2.76 0.173926 2.38347 0.521778 2.0704C0.870222 1.7568 1.28889 1.6 1.77778 1.6H2.66667V0H4.44444V1.6H11.5556V0H13.3333V1.6H14.2222C14.7111 1.6 15.1298 1.7568 15.4782 2.0704C15.8261 2.38347 16 2.76 16 3.2V14.4C16 14.84 15.8261 15.2168 15.4782 15.5304C15.1298 15.8435 14.7111 16 14.2222 16H1.77778ZM1.77778 14.4H14.2222V6.4H1.77778V14.4ZM1.77778 4.8H14.2222V3.2H1.77778V4.8ZM8 9.6C7.74815 9.6 7.53719 9.5232 7.36711 9.3696C7.19644 9.21653 7.11111 9.02667 7.11111 8.8C7.11111 8.57333 7.19644 8.3832 7.36711 8.2296C7.53719 8.07653 7.74815 8 8 8C8.25185 8 8.46311 8.07653 8.63378 8.2296C8.80385 8.3832 8.88889 8.57333 8.88889 8.8C8.88889 9.02667 8.80385 9.21653 8.63378 9.3696C8.46311 9.5232 8.25185 9.6 8 9.6ZM4.44444 9.6C4.19259 9.6 3.98133 9.5232 3.81067 9.3696C3.64059 9.21653 3.55556 9.02667 3.55556 8.8C3.55556 8.57333 3.64059 8.3832 3.81067 8.2296C3.98133 8.07653 4.19259 8 4.44444 8C4.6963 8 4.90756 8.07653 5.07822 8.2296C5.2483 8.3832 5.33333 8.57333 5.33333 8.8C5.33333 9.02667 5.2483 9.21653 5.07822 9.3696C4.90756 9.5232 4.6963 9.6 4.44444 9.6ZM11.5556 9.6C11.3037 9.6 11.0927 9.5232 10.9227 9.3696C10.752 9.21653 10.6667 9.02667 10.6667 8.8C10.6667 8.57333 10.752 8.3832 10.9227 8.2296C11.0927 8.07653 11.3037 8 11.5556 8C11.8074 8 12.0184 8.07653 12.1884 8.2296C12.3591 8.3832 12.4444 8.57333 12.4444 8.8C12.4444 9.02667 12.3591 9.21653 12.1884 9.3696C12.0184 9.5232 11.8074 9.6 11.5556 9.6ZM8 12.8C7.74815 12.8 7.53719 12.7232 7.36711 12.5696C7.19644 12.4165 7.11111 12.2267 7.11111 12C7.11111 11.7733 7.19644 11.5835 7.36711 11.4304C7.53719 11.2768 7.74815 11.2 8 11.2C8.25185 11.2 8.46311 11.2768 8.63378 11.4304C8.80385 11.5835 8.88889 11.7733 8.88889 12C8.88889 12.2267 8.80385 12.4165 8.63378 12.5696C8.46311 12.7232 8.25185 12.8 8 12.8ZM4.44444 12.8C4.19259 12.8 3.98133 12.7232 3.81067 12.5696C3.64059 12.4165 3.55556 12.2267 3.55556 12C3.55556 11.7733 3.64059 11.5835 3.81067 11.4304C3.98133 11.2768 4.19259 11.2 4.44444 11.2C4.6963 11.2 4.90756 11.2768 5.07822 11.4304C5.2483 11.5835 5.33333 11.7733 5.33333 12C5.33333 12.2267 5.2483 12.4165 5.07822 12.5696C4.90756 12.7232 4.6963 12.8 4.44444 12.8ZM11.5556 12.8C11.3037 12.8 11.0927 12.7232 10.9227 12.5696C10.752 12.4165 10.6667 12.2267 10.6667 12C10.6667 11.7733 10.752 11.5835 10.9227 11.4304C11.0927 11.2768 11.3037 11.2 11.5556 11.2C11.8074 11.2 12.0184 11.2768 12.1884 11.4304C12.3591 11.5835 12.4444 11.7733 12.4444 12C12.4444 12.2267 12.3591 12.4165 12.1884 12.5696C12.0184 12.7232 11.8074 12.8 11.5556 12.8Z" fill="#010C10"/>
</svg>
