<svg width="25" height="17" viewBox="0 0 25 17" fill="none" xmlns="http://www.w3.org/2000/svg">
<path d="M19 6L14 11" stroke="#010C10" stroke-linecap="round" stroke-linejoin="round"/>
<path d="M14 6L19 11" stroke="#010C10" stroke-linecap="round" stroke-linejoin="round"/>
<path d="M24 14C24 14.9428 24 15.4142 23.7071 15.7071C23.4142 16 22.9428 16 22 16L9.98999 16C9.60666 16 9.415 16 9.24053 15.9323C9.06606 15.8647 8.92452 15.7354 8.64145 15.477L2.61764 9.97697C1.86127 9.28638 1.48309 8.94108 1.48309 8.5C1.48309 8.05892 1.86127 7.71362 2.61764 7.02303L8.64144 1.52303C8.92452 1.26457 9.06606 1.13534 9.24053 1.06767C9.415 1 9.60666 1 9.98998 1L22 0.999999C22.9428 0.999999 23.4142 0.999999 23.7071 1.29289C24 1.58579 24 2.05719 24 3L24 14Z" stroke="#010C10"/>
</svg>
