<svg width="300" height="200" viewBox="0 0 300 200" fill="none" xmlns="http://www.w3.org/2000/svg">
<rect width="300" height="200" rx="20" fill="#FBFBFB"/>
<path d="M36.0568 27V18.2727H41.3239V19.2102H37.1136V21.9375H39.3295C39.9545 21.9375 40.4815 22.0398 40.9105 22.2443C41.3423 22.4489 41.669 22.7372 41.8906 23.1094C42.1151 23.4815 42.2273 23.9205 42.2273 24.4261C42.2273 24.9318 42.1151 25.3778 41.8906 25.7642C41.669 26.1506 41.3423 26.4531 40.9105 26.6719C40.4815 26.8906 39.9545 27 39.3295 27H36.0568ZM37.1136 26.0795H39.3295C39.7273 26.0795 40.0639 26 40.3395 25.8409C40.6179 25.679 40.8281 25.4716 40.9702 25.2188C41.1151 24.9631 41.1875 24.6932 41.1875 24.4091C41.1875 23.9915 41.027 23.6321 40.706 23.331C40.3849 23.027 39.9261 22.875 39.3295 22.875H37.1136V26.0795ZM46.5749 27.1364C45.9442 27.1364 45.4002 26.9972 44.9428 26.7188C44.4883 26.4375 44.1374 26.0455 43.8903 25.5426C43.646 25.0369 43.5238 24.4489 43.5238 23.7784C43.5238 23.108 43.646 22.517 43.8903 22.0057C44.1374 21.4915 44.4812 21.0909 44.9215 20.804C45.3647 20.5142 45.8817 20.3693 46.4727 20.3693C46.8136 20.3693 47.1502 20.4261 47.4826 20.5398C47.815 20.6534 48.1175 20.8381 48.3903 21.0938C48.663 21.3466 48.8803 21.6818 49.0423 22.0994C49.2042 22.517 49.2852 23.0312 49.2852 23.642V24.0682H44.2397V23.1989H48.2624C48.2624 22.8295 48.1886 22.5 48.0408 22.2102C47.896 21.9205 47.6886 21.6918 47.4187 21.5241C47.1516 21.3565 46.8363 21.2727 46.4727 21.2727C46.0721 21.2727 45.7255 21.3722 45.4329 21.571C45.1431 21.767 44.9201 22.0227 44.7638 22.3381C44.6076 22.6534 44.5295 22.9915 44.5295 23.3523V23.9318C44.5295 24.4261 44.6147 24.8452 44.7852 25.1889C44.9585 25.5298 45.1985 25.7898 45.5053 25.9688C45.8121 26.1449 46.1687 26.233 46.5749 26.233C46.8391 26.233 47.0778 26.196 47.2908 26.1222C47.5067 26.0455 47.6928 25.9318 47.8491 25.7812C48.0053 25.6278 48.1261 25.4375 48.2113 25.2102L49.1829 25.483C49.0806 25.8125 48.9087 26.1023 48.6673 26.3523C48.4258 26.5994 48.1275 26.7926 47.7724 26.9318C47.4173 27.0682 47.0181 27.1364 46.5749 27.1364ZM50.815 20.4545H51.8207V26.0625H54.2923V20.4545H55.2979V26.0625H57.7695V20.4545H58.7752V27H50.815V20.4545ZM65.4698 18L65.9812 18.6136C65.7823 18.8068 65.5522 18.9418 65.2908 19.0185C65.0295 19.0952 64.734 19.142 64.4045 19.1591C64.0749 19.1761 63.7085 19.1932 63.305 19.2102C62.8505 19.2273 62.4741 19.3381 62.1758 19.5426C61.8775 19.7472 61.6474 20.0426 61.4854 20.429C61.3235 20.8153 61.2198 21.2898 61.1744 21.8523H61.2596C61.4812 21.4432 61.788 21.142 62.18 20.9489C62.5721 20.7557 62.9925 20.6591 63.4414 20.6591C63.9528 20.6591 64.413 20.7784 64.8221 21.017C65.2312 21.2557 65.555 21.6094 65.7937 22.0781C66.0323 22.5469 66.1516 23.125 66.1516 23.8125C66.1516 24.4972 66.0295 25.0881 65.7852 25.5852C65.5437 26.0824 65.2042 26.4659 64.7667 26.7358C64.332 27.0028 63.8221 27.1364 63.2369 27.1364C62.6516 27.1364 62.1388 26.9986 61.6985 26.723C61.2582 26.4446 60.9158 26.0327 60.6715 25.4872C60.4272 24.9389 60.305 24.2614 60.305 23.4545V22.7557C60.305 21.2983 60.5522 20.1932 61.0465 19.4403C61.5437 18.6875 62.2908 18.2983 63.288 18.2727C63.6403 18.2614 63.9542 18.2585 64.2298 18.2642C64.5053 18.2699 64.7454 18.2571 64.9499 18.2259C65.1545 18.1946 65.3278 18.1193 65.4698 18ZM63.2369 26.233C63.6317 26.233 63.9712 26.1335 64.2553 25.9347C64.5423 25.7358 64.7624 25.456 64.9158 25.0952C65.0692 24.7315 65.146 24.304 65.146 23.8125C65.146 23.3352 65.0678 22.929 64.9116 22.5938C64.7582 22.2585 64.538 22.0028 64.2511 21.8267C63.9641 21.6506 63.6204 21.5625 63.2198 21.5625C62.9272 21.5625 62.6644 21.6122 62.4315 21.7116C62.1985 21.8111 61.9996 21.9574 61.8349 22.1506C61.6701 22.3437 61.5423 22.5795 61.4513 22.858C61.3633 23.1364 61.3164 23.4545 61.3107 23.8125C61.3107 24.5455 61.4826 25.1321 61.8263 25.5724C62.1701 26.0128 62.6403 26.233 63.2369 26.233ZM69.6161 27.1534C69.2013 27.1534 68.8249 27.0753 68.4869 26.919C68.1488 26.7599 67.8803 26.5312 67.6815 26.233C67.4826 25.9318 67.3832 25.5682 67.3832 25.142C67.3832 24.767 67.457 24.4631 67.6048 24.2301C67.7525 23.9943 67.9499 23.8097 68.1971 23.6761C68.4442 23.5426 68.717 23.4432 69.0153 23.3778C69.3164 23.3097 69.619 23.2557 69.9229 23.2159C70.3207 23.1648 70.6431 23.1264 70.8903 23.1009C71.1403 23.0724 71.3221 23.0256 71.4357 22.9602C71.5522 22.8949 71.6104 22.7812 71.6104 22.6193V22.5852C71.6104 22.1648 71.4954 21.8381 71.2653 21.6051C71.038 21.3722 70.6928 21.2557 70.2298 21.2557C69.7496 21.2557 69.3732 21.3608 69.1005 21.571C68.8278 21.7812 68.636 22.0057 68.5252 22.2443L67.5707 21.9034C67.7411 21.5057 67.9684 21.196 68.2525 20.9744C68.5394 20.75 68.8519 20.5937 69.19 20.5057C69.5309 20.4148 69.8661 20.3693 70.1957 20.3693C70.4059 20.3693 70.6474 20.3949 70.9201 20.446C71.1957 20.4943 71.4613 20.5952 71.717 20.7486C71.9755 20.902 72.19 21.1335 72.3604 21.4432C72.5309 21.7528 72.6161 22.1676 72.6161 22.6875V27H71.6104V26.1136H71.5593C71.4911 26.2557 71.3775 26.4077 71.2184 26.5696C71.0593 26.7315 70.8477 26.8693 70.5835 26.983C70.3192 27.0966 69.9968 27.1534 69.6161 27.1534ZM69.7695 26.25C70.1673 26.25 70.5025 26.1719 70.7752 26.0156C71.0508 25.8594 71.2582 25.6577 71.3974 25.4105C71.5394 25.1634 71.6104 24.9034 71.6104 24.6307V23.7102C71.5678 23.7614 71.4741 23.8082 71.3292 23.8509C71.1871 23.8906 71.0224 23.9261 70.8349 23.9574C70.6502 23.9858 70.4698 24.0114 70.2937 24.0341C70.1204 24.054 69.9798 24.071 69.8718 24.0852C69.6104 24.1193 69.3661 24.1747 69.1388 24.2514C68.9144 24.3253 68.7326 24.4375 68.5934 24.5881C68.457 24.7358 68.3888 24.9375 68.3888 25.1932C68.3888 25.5426 68.5181 25.8068 68.7766 25.9858C69.038 26.1619 69.369 26.25 69.7695 26.25ZM74.4517 29.4545V20.4545H75.4233V21.4943H75.5426C75.6165 21.3807 75.7188 21.2358 75.8494 21.0597C75.983 20.8807 76.1733 20.7216 76.4205 20.5824C76.6705 20.4403 77.0085 20.3693 77.4347 20.3693C77.9858 20.3693 78.4716 20.5071 78.892 20.7827C79.3125 21.0582 79.6406 21.4489 79.8764 21.9545C80.1122 22.4602 80.2301 23.0568 80.2301 23.7443C80.2301 24.4375 80.1122 25.0384 79.8764 25.5469C79.6406 26.0526 79.3139 26.4446 78.8963 26.723C78.4787 26.9986 77.9972 27.1364 77.4517 27.1364C77.0313 27.1364 76.6946 27.0668 76.4418 26.9276C76.1889 26.7855 75.9943 26.625 75.858 26.446C75.7216 26.2642 75.6165 26.1136 75.5426 25.9943H75.4574V29.4545H74.4517ZM75.4403 23.7273C75.4403 24.2216 75.5128 24.6577 75.6577 25.0355C75.8026 25.4105 76.0142 25.7045 76.2926 25.9176C76.571 26.1278 76.9119 26.233 77.3153 26.233C77.7358 26.233 78.0866 26.1222 78.3679 25.9006C78.652 25.6761 78.8651 25.375 79.0071 24.9972C79.152 24.6165 79.2244 24.1932 79.2244 23.7273C79.2244 23.267 79.1534 22.8523 79.0114 22.483C78.8722 22.1108 78.6605 21.8168 78.3764 21.6009C78.0952 21.3821 77.7415 21.2727 77.3153 21.2727C76.9063 21.2727 76.5625 21.3764 76.2841 21.5838C76.0057 21.7884 75.7955 22.0753 75.6534 22.4446C75.5114 22.8111 75.4403 23.2386 75.4403 23.7273ZM85.3438 25.6364L87.6278 20.4545H88.5824L85.7528 27H84.9347L82.1562 20.4545H83.0938L85.3438 25.6364ZM82.7699 20.4545V27H81.7642V20.4545H82.7699ZM87.9176 27V20.4545H88.9233V27H87.9176ZM92.6903 27.1534C92.2756 27.1534 91.8991 27.0753 91.5611 26.919C91.223 26.7599 90.9545 26.5312 90.7557 26.233C90.5568 25.9318 90.4574 25.5682 90.4574 25.142C90.4574 24.767 90.5313 24.4631 90.679 24.2301C90.8267 23.9943 91.0241 23.8097 91.2713 23.6761C91.5185 23.5426 91.7912 23.4432 92.0895 23.3778C92.3906 23.3097 92.6932 23.2557 92.9972 23.2159C93.3949 23.1648 93.7173 23.1264 93.9645 23.1009C94.2145 23.0724 94.3963 23.0256 94.5099 22.9602C94.6264 22.8949 94.6847 22.7812 94.6847 22.6193V22.5852C94.6847 22.1648 94.5696 21.8381 94.3395 21.6051C94.1122 21.3722 93.767 21.2557 93.304 21.2557C92.8239 21.2557 92.4474 21.3608 92.1747 21.571C91.902 21.7812 91.7102 22.0057 91.5994 22.2443L90.6449 21.9034C90.8153 21.5057 91.0426 21.196 91.3267 20.9744C91.6136 20.75 91.9261 20.5937 92.2642 20.5057C92.6051 20.4148 92.9403 20.3693 93.2699 20.3693C93.4801 20.3693 93.7216 20.3949 93.9943 20.446C94.2699 20.4943 94.5355 20.5952 94.7912 20.7486C95.0497 20.902 95.2642 21.1335 95.4347 21.4432C95.6051 21.7528 95.6903 22.1676 95.6903 22.6875V27H94.6847V26.1136H94.6335C94.5653 26.2557 94.4517 26.4077 94.2926 26.5696C94.1335 26.7315 93.9219 26.8693 93.6577 26.983C93.3935 27.0966 93.071 27.1534 92.6903 27.1534ZM92.8438 26.25C93.2415 26.25 93.5767 26.1719 93.8494 26.0156C94.125 25.8594 94.3324 25.6577 94.4716 25.4105C94.6136 25.1634 94.6847 24.9034 94.6847 24.6307V23.7102C94.642 23.7614 94.5483 23.8082 94.4034 23.8509C94.2614 23.8906 94.0966 23.9261 93.9091 23.9574C93.7244 23.9858 93.544 24.0114 93.3679 24.0341C93.1946 24.054 93.054 24.071 92.946 24.0852C92.6847 24.1193 92.4403 24.1747 92.2131 24.2514C91.9886 24.3253 91.8068 24.4375 91.6676 24.5881C91.5313 24.7358 91.4631 24.9375 91.4631 25.1932C91.4631 25.5426 91.5923 25.8068 91.8509 25.9858C92.1122 26.1619 92.4432 26.25 92.8438 26.25ZM97.5259 27V20.4545H98.5316V23.3011H99.1964L101.549 20.4545H102.844L100.202 23.608L102.878 27H101.583L99.435 24.2386H98.5316V27H97.5259Z" fill="#010C10"/>
<circle cx="25" cy="23" r="5" fill="#086788"/>
<path d="M134.307 27V26.0284H134.562C134.926 26.0284 135.209 25.9119 135.411 25.679C135.612 25.446 135.757 25.0696 135.845 24.5497C135.936 24.0298 135.997 23.3409 136.028 22.483L136.182 18.2727H141.5V27H140.443V19.2102H137.188L137.051 22.6875C137.017 23.6023 136.933 24.3807 136.8 25.0227C136.666 25.6648 136.432 26.1548 136.097 26.4929C135.761 26.831 135.273 27 134.631 27H134.307ZM146.219 27.1364C145.589 27.1364 145.045 26.9972 144.587 26.7188C144.133 26.4375 143.782 26.0455 143.535 25.5426C143.29 25.0369 143.168 24.4489 143.168 23.7784C143.168 23.108 143.29 22.517 143.535 22.0057C143.782 21.4915 144.126 21.0909 144.566 20.804C145.009 20.5142 145.526 20.3693 146.117 20.3693C146.458 20.3693 146.795 20.4261 147.127 20.5398C147.46 20.6534 147.762 20.8381 148.035 21.0938C148.308 21.3466 148.525 21.6818 148.687 22.0994C148.849 22.517 148.93 23.0312 148.93 23.642V24.0682H143.884V23.1989H147.907C147.907 22.8295 147.833 22.5 147.685 22.2102C147.54 21.9205 147.333 21.6918 147.063 21.5241C146.796 21.3565 146.481 21.2727 146.117 21.2727C145.717 21.2727 145.37 21.3722 145.077 21.571C144.788 21.767 144.565 22.0227 144.408 22.3381C144.252 22.6534 144.174 22.9915 144.174 23.3523V23.9318C144.174 24.4261 144.259 24.8452 144.43 25.1889C144.603 25.5298 144.843 25.7898 145.15 25.9688C145.457 26.1449 145.813 26.233 146.219 26.233C146.484 26.233 146.722 26.196 146.935 26.1222C147.151 26.0455 147.337 25.9318 147.494 25.7812C147.65 25.6278 147.771 25.4375 147.856 25.2102L148.827 25.483C148.725 25.8125 148.553 26.1023 148.312 26.3523C148.07 26.5994 147.772 26.7926 147.417 26.9318C147.062 27.0682 146.663 27.1364 146.219 27.1364ZM154.84 23.267V24.2045H151.227V23.267H154.84ZM151.465 20.4545V27H150.46V20.4545H151.465ZM155.607 20.4545V27H154.602V20.4545H155.607ZM158.45 25.517L161.603 20.4545H162.762V27H161.756V21.9375L158.62 27H157.444V20.4545H158.45V25.517ZM164.604 27V20.4545H167.28C167.985 20.4545 168.544 20.6136 168.959 20.9318C169.374 21.25 169.581 21.6705 169.581 22.1932C169.581 22.5909 169.463 22.8991 169.228 23.1179C168.992 23.3338 168.689 23.4801 168.32 23.5568C168.561 23.5909 168.796 23.6761 169.023 23.8125C169.253 23.9489 169.444 24.1364 169.594 24.375C169.745 24.6108 169.82 24.9006 169.82 25.2443C169.82 25.5795 169.735 25.8793 169.564 26.1435C169.394 26.4077 169.15 26.6165 168.831 26.7699C168.513 26.9233 168.132 27 167.689 27H164.604ZM165.559 26.0795H167.689C168.036 26.0795 168.307 25.9972 168.503 25.8324C168.699 25.6676 168.797 25.4432 168.797 25.1591C168.797 24.821 168.699 24.5554 168.503 24.3622C168.307 24.1662 168.036 24.0682 167.689 24.0682H165.559V26.0795ZM165.559 23.1989H167.28C167.55 23.1989 167.782 23.1619 167.975 23.0881C168.168 23.0114 168.316 22.9034 168.418 22.7642C168.523 22.6222 168.576 22.4545 168.576 22.2614C168.576 21.9858 168.461 21.7699 168.23 21.6136C168 21.4545 167.684 21.375 167.28 21.375H165.559V23.1989ZM172.212 22.8239H174.087C174.854 22.8239 175.44 23.0185 175.847 23.4077C176.253 23.7969 176.456 24.2898 176.456 24.8864C176.456 25.2784 176.365 25.6349 176.183 25.956C176.001 26.2741 175.734 26.5284 175.382 26.7188C175.03 26.9062 174.598 27 174.087 27H171.342V20.4545H172.348V26.0625H174.087C174.484 26.0625 174.811 25.9574 175.067 25.7472C175.322 25.5369 175.45 25.267 175.45 24.9375C175.45 24.5909 175.322 24.3082 175.067 24.0895C174.811 23.8707 174.484 23.7614 174.087 23.7614H172.212V22.8239ZM177.496 27V20.4545H178.501V27H177.496ZM183.087 27.1364C182.456 27.1364 181.912 26.9972 181.455 26.7188C181 26.4375 180.649 26.0455 180.402 25.5426C180.158 25.0369 180.036 24.4489 180.036 23.7784C180.036 23.108 180.158 22.517 180.402 22.0057C180.649 21.4915 180.993 21.0909 181.433 20.804C181.876 20.5142 182.393 20.3693 182.984 20.3693C183.325 20.3693 183.662 20.4261 183.994 20.5398C184.327 20.6534 184.629 20.8381 184.902 21.0938C185.175 21.3466 185.392 21.6818 185.554 22.0994C185.716 22.517 185.797 23.0312 185.797 23.642V24.0682H180.751V23.1989H184.774C184.774 22.8295 184.7 22.5 184.553 22.2102C184.408 21.9205 184.2 21.6918 183.93 21.5241C183.663 21.3565 183.348 21.2727 182.984 21.2727C182.584 21.2727 182.237 21.3722 181.945 21.571C181.655 21.767 181.432 22.0227 181.276 22.3381C181.119 22.6534 181.041 22.9915 181.041 23.3523V23.9318C181.041 24.4261 181.126 24.8452 181.297 25.1889C181.47 25.5298 181.71 25.7898 182.017 25.9688C182.324 26.1449 182.68 26.233 183.087 26.233C183.351 26.233 183.589 26.196 183.803 26.1222C184.018 26.0455 184.205 25.9318 184.361 25.7812C184.517 25.6278 184.638 25.4375 184.723 25.2102L185.695 25.483C185.592 25.8125 185.42 26.1023 185.179 26.3523C184.938 26.5994 184.639 26.7926 184.284 26.9318C183.929 27.0682 183.53 27.1364 183.087 27.1364ZM194.741 20.4545V21.392H191.707V27H190.702V20.4545H194.741ZM198.529 27.1364C197.938 27.1364 197.419 26.9957 196.973 26.7145C196.53 26.4332 196.184 26.0398 195.934 25.5341C195.686 25.0284 195.563 24.4375 195.563 23.7614C195.563 23.0795 195.686 22.4844 195.934 21.9759C196.184 21.4673 196.53 21.0724 196.973 20.7912C197.419 20.5099 197.938 20.3693 198.529 20.3693C199.12 20.3693 199.637 20.5099 200.08 20.7912C200.526 21.0724 200.873 21.4673 201.12 21.9759C201.37 22.4844 201.495 23.0795 201.495 23.7614C201.495 24.4375 201.37 25.0284 201.12 25.5341C200.873 26.0398 200.526 26.4332 200.08 26.7145C199.637 26.9957 199.12 27.1364 198.529 27.1364ZM198.529 26.233C198.978 26.233 199.347 26.1179 199.637 25.8878C199.926 25.6577 200.141 25.3551 200.28 24.9801C200.419 24.6051 200.489 24.1989 200.489 23.7614C200.489 23.3239 200.419 22.9162 200.28 22.5384C200.141 22.1605 199.926 21.8551 199.637 21.6222C199.347 21.3892 198.978 21.2727 198.529 21.2727C198.08 21.2727 197.711 21.3892 197.421 21.6222C197.131 21.8551 196.917 22.1605 196.777 22.5384C196.638 22.9162 196.569 23.3239 196.569 23.7614C196.569 24.1989 196.638 24.6051 196.777 24.9801C196.917 25.3551 197.131 25.6577 197.421 25.8878C197.711 26.1179 198.08 26.233 198.529 26.233ZM202.45 27V26.0625H202.689C202.885 26.0625 203.048 26.0241 203.179 25.9474C203.31 25.8679 203.415 25.7301 203.494 25.5341C203.577 25.3352 203.639 25.0597 203.682 24.7074C203.727 24.3523 203.76 23.9006 203.78 23.3523L203.899 20.4545H208.263V27H207.257V21.392H204.854L204.751 23.7273C204.729 24.2642 204.68 24.7372 204.607 25.1463C204.536 25.5526 204.426 25.8935 204.278 26.169C204.134 26.4446 203.94 26.652 203.699 26.7912C203.457 26.9304 203.155 27 202.791 27H202.45ZM210.521 29.4545C210.351 29.4545 210.199 29.4403 210.065 29.4119C209.932 29.3864 209.839 29.3608 209.788 29.3352L210.044 28.4489C210.288 28.5114 210.504 28.5341 210.692 28.517C210.879 28.5 211.045 28.4162 211.19 28.2656C211.338 28.1179 211.473 27.8778 211.595 27.5455L211.783 27.0341L209.362 20.4545H210.453L212.26 25.6705H212.328L214.135 20.4545H215.226L212.447 27.9545C212.322 28.2926 212.168 28.5724 211.983 28.794C211.798 29.0185 211.584 29.1847 211.339 29.2926C211.098 29.4006 210.825 29.4545 210.521 29.4545ZM221.411 18L221.923 18.6136C221.724 18.8068 221.494 18.9418 221.232 19.0185C220.971 19.0952 220.675 19.142 220.346 19.1591C220.016 19.1761 219.65 19.1932 219.246 19.2102C218.792 19.2273 218.415 19.3381 218.117 19.5426C217.819 19.7472 217.589 20.0426 217.427 20.429C217.265 20.8153 217.161 21.2898 217.116 21.8523H217.201C217.423 21.4432 217.729 21.142 218.121 20.9489C218.513 20.7557 218.934 20.6591 219.383 20.6591C219.894 20.6591 220.354 20.7784 220.763 21.017C221.173 21.2557 221.496 21.6094 221.735 22.0781C221.974 22.5469 222.093 23.125 222.093 23.8125C222.093 24.4972 221.971 25.0881 221.727 25.5852C221.485 26.0824 221.146 26.4659 220.708 26.7358C220.273 27.0028 219.763 27.1364 219.178 27.1364C218.593 27.1364 218.08 26.9986 217.64 26.723C217.2 26.4446 216.857 26.0327 216.613 25.4872C216.369 24.9389 216.246 24.2614 216.246 23.4545V22.7557C216.246 21.2983 216.494 20.1932 216.988 19.4403C217.485 18.6875 218.232 18.2983 219.229 18.2727C219.582 18.2614 219.896 18.2585 220.171 18.2642C220.447 18.2699 220.687 18.2571 220.891 18.2259C221.096 18.1946 221.269 18.1193 221.411 18ZM219.178 26.233C219.573 26.233 219.913 26.1335 220.197 25.9347C220.484 25.7358 220.704 25.456 220.857 25.0952C221.011 24.7315 221.087 24.304 221.087 23.8125C221.087 23.3352 221.009 22.929 220.853 22.5938C220.7 22.2585 220.479 22.0028 220.192 21.8267C219.906 21.6506 219.562 21.5625 219.161 21.5625C218.869 21.5625 218.606 21.6122 218.373 21.7116C218.14 21.8111 217.941 21.9574 217.776 22.1506C217.612 22.3437 217.484 22.5795 217.393 22.858C217.305 23.1364 217.258 23.4545 217.252 23.8125C217.252 24.5455 217.424 25.1321 217.768 25.5724C218.112 26.0128 218.582 26.233 219.178 26.233ZM228.779 20.4545V26.0625H229.7V29.1136H228.694V27H223.631V20.4545H224.637V26.0625H227.773V20.4545H228.779ZM232.118 22.8239H233.993C234.76 22.8239 235.347 23.0185 235.753 23.4077C236.159 23.7969 236.362 24.2898 236.362 24.8864C236.362 25.2784 236.271 25.6349 236.089 25.956C235.908 26.2741 235.641 26.5284 235.288 26.7188C234.936 26.9062 234.504 27 233.993 27H231.249V20.4545H232.254V26.0625H233.993C234.391 26.0625 234.717 25.9574 234.973 25.7472C235.229 25.5369 235.357 25.267 235.357 24.9375C235.357 24.5909 235.229 24.3082 234.973 24.0895C234.717 23.8707 234.391 23.7614 233.993 23.7614H232.118V22.8239ZM237.402 27V20.4545H238.408V27H237.402Z" fill="#010C10"/>
<circle cx="124" cy="23" r="5" fill="#F0C808"/>
<rect x="279" y="167" width="1.00001" height="220" transform="rotate(90 279 167)" fill="#ECECEC"/>
<path d="M60 155C66.3144 151.352 76 139.5 82.1082 137.619C88.5993 135.62 114.041 132.469 121.077 128.606C128.113 124.744 142.727 125.387 163.835 121.525C184.943 117.662 195.226 107.362 215.252 104.787C235.278 102.212 231.489 109.293 244.479 98.9934C257.469 88.6932 254.221 80.3244 266.128 75.818C275.654 72.213 274.5 67.9998 279 66.4998" stroke="#086788" stroke-width="2" stroke-linecap="round"/>
<path d="M60 59.6555C62.48 57.5177 70.8072 55.0717 95.889 83.3099C96.2701 83.739 96.8503 83.9985 97.4241 84.0069C132.311 84.5226 130.446 114.247 146.013 112.965C161.716 111.672 182.833 85.1609 207.741 87.7473C232.65 90.3338 275.751 100.739 279 102.032" stroke="#F0C808" stroke-width="2" stroke-linecap="round"/>
<rect x="59" y="47" width="1" height="120" fill="#ECECEC"/>
<path d="M64.3807 176.594H65.5312C66.071 176.594 66.5504 176.714 66.9695 176.956C67.3885 177.197 67.7176 177.534 67.9567 177.964C68.1958 178.395 68.3153 178.895 68.3153 179.463C68.3153 180.031 68.1958 180.532 67.9567 180.965C67.7176 181.398 67.3885 181.737 66.9695 181.981C66.5504 182.225 66.071 182.347 65.5312 182.347H64.3807C63.8409 182.347 63.3615 182.226 62.9425 181.984C62.5234 181.743 62.1944 181.407 61.9553 180.976C61.7161 180.545 61.5966 180.045 61.5966 179.477C61.5966 178.909 61.7161 178.408 61.9553 177.975C62.1944 177.542 62.5234 177.203 62.9425 176.96C63.3615 176.716 63.8409 176.594 64.3807 176.594ZM64.3807 177.375C63.9688 177.375 63.6207 177.461 63.3366 177.634C63.0549 177.807 62.8407 178.051 62.6939 178.366C62.5495 178.681 62.4773 179.051 62.4773 179.477C62.4773 179.899 62.5495 180.266 62.6939 180.578C62.8407 180.891 63.0549 181.133 63.3366 181.306C63.6207 181.479 63.9688 181.565 64.3807 181.565H65.5312C65.9432 181.565 66.29 181.479 66.5717 181.306C66.8558 181.133 67.0701 180.889 67.2145 180.575C67.3613 180.26 67.4347 179.889 67.4347 179.463C67.4347 179.042 67.3613 178.675 67.2145 178.362C67.0701 178.05 66.8558 177.807 66.5717 177.634C66.29 177.461 65.9432 177.375 65.5312 177.375H64.3807ZM65.4034 175.599V183.298H64.5227V175.599H65.4034ZM71.9641 183.114C71.4386 183.114 70.9852 182.998 70.604 182.766C70.2253 182.531 69.9329 182.205 69.7269 181.786C69.5233 181.364 69.4215 180.874 69.4215 180.315C69.4215 179.757 69.5233 179.264 69.7269 178.838C69.9329 178.41 70.2193 178.076 70.5863 177.837C70.9556 177.595 71.3865 177.474 71.8789 177.474C72.163 177.474 72.4435 177.522 72.7205 177.616C72.9975 177.711 73.2496 177.865 73.4769 178.078C73.7042 178.289 73.8853 178.568 74.0202 178.916C74.1552 179.264 74.2227 179.693 74.2227 180.202V180.557H70.0181V179.832H73.3704C73.3704 179.525 73.3088 179.25 73.1857 179.009C73.065 178.767 72.8922 178.576 72.6673 178.437C72.4447 178.297 72.1819 178.227 71.8789 178.227C71.5451 178.227 71.2563 178.31 71.0124 178.476C70.771 178.639 70.5851 178.852 70.4549 179.115C70.3247 179.378 70.2596 179.66 70.2596 179.96V180.443C70.2596 180.855 70.3306 181.204 70.4727 181.491C70.6171 181.775 70.8171 181.991 71.0728 182.141C71.3285 182.287 71.6256 182.361 71.9641 182.361C72.1843 182.361 72.3832 182.33 72.5607 182.268C72.7406 182.205 72.8957 182.11 73.0259 181.984C73.1561 181.857 73.2567 181.698 73.3278 181.509L74.1374 181.736C74.0522 182.01 73.909 182.252 73.7077 182.46C73.5065 182.666 73.2579 182.827 72.962 182.943C72.6661 183.057 72.3335 183.114 71.9641 183.114ZM75.4975 183V177.545H77.7276C78.3147 177.545 78.7811 177.678 79.1268 177.943C79.4724 178.208 79.6452 178.559 79.6452 178.994C79.6452 179.326 79.547 179.583 79.3505 179.765C79.154 179.945 78.9019 180.067 78.5941 180.131C78.7953 180.159 78.9906 180.23 79.18 180.344C79.3718 180.457 79.5304 180.614 79.6559 180.812C79.7814 181.009 79.8441 181.25 79.8441 181.537C79.8441 181.816 79.7731 182.066 79.631 182.286C79.489 182.506 79.2854 182.68 79.0202 182.808C78.7551 182.936 78.4379 183 78.0685 183H75.4975ZM76.293 182.233H78.0685C78.3574 182.233 78.5835 182.164 78.7468 182.027C78.9102 181.89 78.9918 181.703 78.9918 181.466C78.9918 181.184 78.9102 180.963 78.7468 180.802C78.5835 180.638 78.3574 180.557 78.0685 180.557H76.293V182.233ZM76.293 179.832H77.7276C77.9525 179.832 78.1455 179.802 78.3065 179.74C78.4674 179.676 78.5906 179.586 78.6758 179.47C78.7634 179.352 78.8072 179.212 78.8072 179.051C78.8072 178.821 78.7113 178.642 78.5195 178.511C78.3278 178.379 78.0638 178.312 77.7276 178.312H76.293V179.832Z" fill="#868686"/>
<path d="M102.881 175.727H103.932L106.403 181.764H106.489L108.96 175.727H110.011V183H109.188V177.474H109.116L106.844 183H106.048L103.776 177.474H103.705V183H102.881V175.727ZM113.269 183.128C112.923 183.128 112.609 183.063 112.328 182.933C112.046 182.8 111.822 182.609 111.656 182.361C111.491 182.11 111.408 181.807 111.408 181.452C111.408 181.139 111.469 180.886 111.593 180.692C111.716 180.495 111.88 180.341 112.086 180.23C112.292 180.119 112.519 180.036 112.768 179.982C113.019 179.925 113.271 179.88 113.524 179.847C113.856 179.804 114.124 179.772 114.33 179.751C114.539 179.727 114.69 179.688 114.785 179.634C114.882 179.579 114.931 179.484 114.931 179.349V179.321C114.931 178.971 114.835 178.698 114.643 178.504C114.454 178.31 114.166 178.213 113.78 178.213C113.38 178.213 113.066 178.301 112.839 178.476C112.612 178.651 112.452 178.838 112.36 179.037L111.564 178.753C111.706 178.421 111.896 178.163 112.132 177.979C112.371 177.792 112.632 177.661 112.914 177.588C113.198 177.512 113.477 177.474 113.752 177.474C113.927 177.474 114.128 177.496 114.355 177.538C114.585 177.579 114.806 177.663 115.019 177.79C115.235 177.918 115.414 178.111 115.556 178.369C115.698 178.627 115.769 178.973 115.769 179.406V183H114.931V182.261H114.888C114.831 182.38 114.736 182.506 114.604 182.641C114.471 182.776 114.295 182.891 114.075 182.986C113.855 183.08 113.586 183.128 113.269 183.128ZM113.396 182.375C113.728 182.375 114.007 182.31 114.235 182.18C114.464 182.049 114.637 181.881 114.753 181.675C114.871 181.469 114.931 181.253 114.931 181.026V180.259C114.895 180.301 114.817 180.34 114.696 180.376C114.578 180.409 114.441 180.438 114.284 180.464C114.13 180.488 113.98 180.509 113.833 180.528C113.689 180.545 113.572 180.559 113.482 180.571C113.264 180.599 113.06 180.646 112.871 180.71C112.684 180.771 112.532 180.865 112.416 180.99C112.303 181.113 112.246 181.281 112.246 181.494C112.246 181.786 112.354 182.006 112.569 182.155C112.787 182.302 113.063 182.375 113.396 182.375ZM117.298 185.045V177.545H118.108V178.412H118.207C118.269 178.317 118.354 178.196 118.463 178.05C118.574 177.901 118.733 177.768 118.939 177.652C119.147 177.534 119.429 177.474 119.784 177.474C120.243 177.474 120.648 177.589 120.999 177.819C121.349 178.049 121.622 178.374 121.819 178.795C122.015 179.217 122.114 179.714 122.114 180.287C122.114 180.865 122.015 181.365 121.819 181.789C121.622 182.21 121.35 182.537 121.002 182.769C120.654 182.999 120.253 183.114 119.798 183.114C119.448 183.114 119.167 183.056 118.957 182.94C118.746 182.821 118.584 182.687 118.47 182.538C118.357 182.387 118.269 182.261 118.207 182.162H118.136V185.045H117.298ZM118.122 180.273C118.122 180.685 118.183 181.048 118.303 181.363C118.424 181.675 118.6 181.92 118.832 182.098C119.064 182.273 119.348 182.361 119.685 182.361C120.035 182.361 120.327 182.268 120.562 182.084C120.799 181.897 120.976 181.646 121.094 181.331C121.215 181.014 121.276 180.661 121.276 180.273C121.276 179.889 121.216 179.544 121.098 179.236C120.982 178.926 120.806 178.681 120.569 178.501C120.335 178.318 120.04 178.227 119.685 178.227C119.344 178.227 119.057 178.314 118.825 178.487C118.593 178.657 118.418 178.896 118.3 179.204C118.181 179.509 118.122 179.866 118.122 180.273ZM122.679 178.327V177.545H127.111V178.327H125.321V183H124.483V178.327H122.679Z" fill="#868686"/>
<path d="M149.881 175.727H150.747V181.452H150.818L154.795 175.727H155.648V183H154.767V177.29H154.696L150.733 183H149.881V175.727ZM159.91 179.932V180.713H157.026V179.932H159.91ZM157.737 177.545V183H156.899V177.545H157.737ZM161.586 183.114C161.094 183.114 160.662 182.996 160.29 182.762C159.921 182.528 159.632 182.2 159.423 181.778C159.218 181.357 159.115 180.865 159.115 180.301C159.115 179.733 159.218 179.237 159.423 178.813C159.632 178.389 159.921 178.06 160.29 177.826C160.662 177.592 161.094 177.474 161.586 177.474C162.079 177.474 162.509 177.592 162.879 177.826C163.25 178.06 163.539 178.389 163.745 178.813C163.954 179.237 164.058 179.733 164.058 180.301C164.058 180.865 163.954 181.357 163.745 181.778C163.539 182.2 163.25 182.528 162.879 182.762C162.509 182.996 162.079 183.114 161.586 183.114ZM161.586 182.361C161.96 182.361 162.268 182.265 162.509 182.073C162.751 181.881 162.93 181.629 163.046 181.317C163.162 181.004 163.22 180.666 163.22 180.301C163.22 179.937 163.162 179.597 163.046 179.282C162.93 178.967 162.751 178.713 162.509 178.518C162.268 178.324 161.96 178.227 161.586 178.227C161.212 178.227 160.904 178.324 160.663 178.518C160.421 178.713 160.243 178.967 160.127 179.282C160.011 179.597 159.953 179.937 159.953 180.301C159.953 180.666 160.011 181.004 160.127 181.317C160.243 181.629 160.421 181.881 160.663 182.073C160.904 182.265 161.212 182.361 161.586 182.361ZM169.072 179.889V180.67H166.061V179.889H169.072ZM166.259 177.545V183H165.421V177.545H166.259ZM169.711 177.545V183H168.873V177.545H169.711ZM171.966 179.52H173.529C174.168 179.52 174.657 179.682 174.995 180.006C175.334 180.331 175.503 180.741 175.503 181.239C175.503 181.565 175.427 181.862 175.276 182.13C175.124 182.395 174.902 182.607 174.608 182.766C174.315 182.922 173.955 183 173.529 183H171.242V177.545H172.08V182.219H173.529C173.86 182.219 174.132 182.131 174.345 181.956C174.558 181.781 174.665 181.556 174.665 181.281C174.665 180.992 174.558 180.757 174.345 180.575C174.132 180.392 173.86 180.301 173.529 180.301H171.966V179.52Z" fill="#868686"/>
<path d="M198.881 175.727H199.747V181.452H199.818L203.795 175.727H204.648V183H203.767V177.29H203.696L199.733 183H198.881V175.727ZM208.91 179.932V180.713H206.026V179.932H208.91ZM206.737 177.545V183H205.899V177.545H206.737ZM210.586 183.114C210.094 183.114 209.662 182.996 209.29 182.762C208.921 182.528 208.632 182.2 208.423 181.778C208.218 181.357 208.115 180.865 208.115 180.301C208.115 179.733 208.218 179.237 208.423 178.813C208.632 178.389 208.921 178.06 209.29 177.826C209.662 177.592 210.094 177.474 210.586 177.474C211.079 177.474 211.509 177.592 211.879 177.826C212.25 178.06 212.539 178.389 212.745 178.813C212.954 179.237 213.058 179.733 213.058 180.301C213.058 180.865 212.954 181.357 212.745 181.778C212.539 182.2 212.25 182.528 211.879 182.762C211.509 182.996 211.079 183.114 210.586 183.114ZM210.586 182.361C210.96 182.361 211.268 182.265 211.509 182.073C211.751 181.881 211.93 181.629 212.046 181.317C212.162 181.004 212.22 180.666 212.22 180.301C212.22 179.937 212.162 179.597 212.046 179.282C211.93 178.967 211.751 178.713 211.509 178.518C211.268 178.324 210.96 178.227 210.586 178.227C210.212 178.227 209.904 178.324 209.663 178.518C209.421 178.713 209.243 178.967 209.127 179.282C209.011 179.597 208.953 179.937 208.953 180.301C208.953 180.666 209.011 181.004 209.127 181.317C209.243 181.629 209.421 181.881 209.663 182.073C209.904 182.265 210.212 182.361 210.586 182.361ZM213.938 183V182.219H214.137C214.301 182.219 214.437 182.187 214.546 182.123C214.655 182.057 214.742 181.942 214.808 181.778C214.877 181.613 214.929 181.383 214.965 181.089C215.003 180.794 215.03 180.417 215.046 179.96L215.146 177.545H218.782V183H217.944V178.327H215.941L215.856 180.273C215.837 180.72 215.797 181.114 215.735 181.455C215.676 181.794 215.585 182.078 215.462 182.308C215.341 182.537 215.18 182.71 214.979 182.826C214.778 182.942 214.526 183 214.222 183H213.938ZM221.044 179.52H222.607C223.246 179.52 223.735 179.682 224.073 180.006C224.412 180.331 224.581 180.741 224.581 181.239C224.581 181.565 224.505 181.862 224.354 182.13C224.202 182.395 223.98 182.607 223.686 182.766C223.393 182.922 223.033 183 222.607 183H220.32V177.545H221.158V182.219H222.607C222.938 182.219 223.21 182.131 223.423 181.956C223.637 181.781 223.743 181.556 223.743 181.281C223.743 180.992 223.637 180.757 223.423 180.575C223.21 180.392 222.938 180.301 222.607 180.301H221.044V179.52Z" fill="#868686"/>
<path d="M248.179 183H247.256L249.926 175.727H250.835L253.506 183H252.582L250.409 176.878H250.352L248.179 183ZM248.52 180.159H252.241V180.94H248.52V180.159ZM254.525 183V177.545H256.755C257.342 177.545 257.808 177.678 258.154 177.943C258.5 178.208 258.673 178.559 258.673 178.994C258.673 179.326 258.574 179.583 258.378 179.765C258.181 179.945 257.929 180.067 257.621 180.131C257.823 180.159 258.018 180.23 258.207 180.344C258.399 180.457 258.558 180.614 258.683 180.812C258.809 181.009 258.871 181.25 258.871 181.537C258.871 181.816 258.8 182.066 258.658 182.286C258.516 182.506 258.313 182.68 258.048 182.808C257.782 182.936 257.465 183 257.096 183H254.525ZM255.32 182.233H257.096C257.385 182.233 257.611 182.164 257.774 182.027C257.938 181.89 258.019 181.703 258.019 181.466C258.019 181.184 257.938 180.963 257.774 180.802C257.611 180.638 257.385 180.557 257.096 180.557H255.32V182.233ZM255.32 179.832H256.755C256.98 179.832 257.173 179.802 257.334 179.74C257.495 179.676 257.618 179.586 257.703 179.47C257.791 179.352 257.835 179.212 257.835 179.051C257.835 178.821 257.739 178.642 257.547 178.511C257.355 178.379 257.091 178.312 256.755 178.312H255.32V179.832ZM263.507 177.545V178.327H260.978V183H260.14V177.545H263.507ZM265.27 185.045C265.128 185.045 265.001 185.034 264.89 185.01C264.778 184.989 264.702 184.967 264.659 184.946L264.872 184.207C265.076 184.259 265.256 184.278 265.412 184.264C265.568 184.25 265.706 184.18 265.827 184.055C265.95 183.932 266.063 183.732 266.165 183.455L266.321 183.028L264.304 177.545H265.213L266.719 181.892H266.775L268.281 177.545H269.19L266.875 183.795C266.771 184.077 266.642 184.31 266.488 184.495C266.334 184.682 266.155 184.821 265.952 184.911C265.75 185 265.523 185.045 265.27 185.045ZM272.317 183.114C271.806 183.114 271.365 182.993 270.996 182.751C270.627 182.51 270.343 182.177 270.144 181.754C269.945 181.33 269.845 180.846 269.845 180.301C269.845 179.747 269.947 179.258 270.151 178.835C270.357 178.408 270.643 178.076 271.01 177.837C271.379 177.595 271.81 177.474 272.303 177.474C272.686 177.474 273.032 177.545 273.34 177.688C273.647 177.83 273.9 178.028 274.096 178.284C274.293 178.54 274.414 178.838 274.462 179.179H273.624C273.56 178.93 273.418 178.71 273.198 178.518C272.98 178.324 272.686 178.227 272.317 178.227C271.99 178.227 271.704 178.312 271.458 178.483C271.214 178.651 271.023 178.889 270.886 179.197C270.751 179.502 270.683 179.861 270.683 180.273C270.683 180.694 270.75 181.061 270.882 181.374C271.017 181.686 271.207 181.929 271.45 182.102C271.697 182.274 271.985 182.361 272.317 182.361C272.535 182.361 272.732 182.323 272.91 182.247C273.088 182.171 273.238 182.062 273.361 181.92C273.484 181.778 273.572 181.608 273.624 181.409H274.462C274.414 181.731 274.297 182.021 274.11 182.279C273.926 182.535 273.681 182.738 273.375 182.89C273.072 183.039 272.719 183.114 272.317 183.114ZM275.257 178.327V177.545H279.689V178.327H277.899V183H277.061V178.327H275.257Z" fill="#868686"/>
<path d="M26.483 48.5085V47.7273H31.9375V48.5085H29.6506V55H28.7699V48.5085H26.483ZM34.679 55.1136C34.1534 55.1136 33.7 54.9976 33.3189 54.7656C32.9401 54.5312 32.6477 54.2045 32.4418 53.7855C32.2382 53.3641 32.1364 52.8741 32.1364 52.3153C32.1364 51.7566 32.2382 51.2642 32.4418 50.8381C32.6477 50.4096 32.9342 50.0758 33.3011 49.8366C33.6705 49.5952 34.1013 49.4744 34.5938 49.4744C34.8778 49.4744 35.1584 49.5218 35.4354 49.6165C35.7124 49.7112 35.9645 49.8651 36.1918 50.0781C36.419 50.2888 36.6001 50.5682 36.7351 50.9162C36.87 51.2642 36.9375 51.6927 36.9375 52.2017V52.5568H32.733V51.8324H36.0852C36.0852 51.5246 36.0237 51.25 35.9006 51.0085C35.7798 50.767 35.607 50.5765 35.3821 50.4368C35.1596 50.2971 34.8968 50.2273 34.5938 50.2273C34.2599 50.2273 33.9711 50.3101 33.7273 50.4759C33.4858 50.6392 33.3 50.8523 33.1697 51.1151C33.0395 51.3778 32.9744 51.6596 32.9744 51.9602V52.4432C32.9744 52.8551 33.0455 53.2043 33.1875 53.4908C33.3319 53.7749 33.532 53.9915 33.7876 54.1406C34.0433 54.2874 34.3404 54.3608 34.679 54.3608C34.8991 54.3608 35.098 54.33 35.2756 54.2685C35.4555 54.2045 35.6106 54.1098 35.7408 53.9844C35.871 53.8565 35.9716 53.6979 36.0426 53.5085L36.8523 53.7358C36.767 54.0104 36.6238 54.2519 36.4226 54.4602C36.2214 54.6662 35.9728 54.8272 35.6768 54.9432C35.3809 55.0568 35.0483 55.1136 34.679 55.1136ZM41.8629 51.8892V52.6705H38.8516V51.8892H41.8629ZM39.0504 49.5455V55H38.2124V49.5455H39.0504ZM42.5021 49.5455V55H41.6641V49.5455H42.5021ZM47.3991 49.5455V50.3267H44.8707V55H44.0327V49.5455H47.3991ZM50.6262 55.1136C50.1007 55.1136 49.6473 54.9976 49.2662 54.7656C48.8874 54.5312 48.595 54.2045 48.389 53.7855C48.1854 53.3641 48.0836 52.8741 48.0836 52.3153C48.0836 51.7566 48.1854 51.2642 48.389 50.8381C48.595 50.4096 48.8815 50.0758 49.2484 49.8366C49.6177 49.5952 50.0486 49.4744 50.541 49.4744C50.8251 49.4744 51.1056 49.5218 51.3826 49.6165C51.6596 49.7112 51.9118 49.8651 52.139 50.0781C52.3663 50.2888 52.5474 50.5682 52.6824 50.9162C52.8173 51.2642 52.8848 51.6927 52.8848 52.2017V52.5568H48.6802V51.8324H52.0325C52.0325 51.5246 51.9709 51.25 51.8478 51.0085C51.7271 50.767 51.5543 50.5765 51.3294 50.4368C51.1068 50.2971 50.844 50.2273 50.541 50.2273C50.2072 50.2273 49.9184 50.3101 49.6745 50.4759C49.4331 50.6392 49.2472 50.8523 49.117 51.1151C48.9868 51.3778 48.9217 51.6596 48.9217 51.9602V52.4432C48.9217 52.8551 48.9927 53.2043 49.1348 53.4908C49.2792 53.7749 49.4792 53.9915 49.7349 54.1406C49.9906 54.2874 50.2877 54.3608 50.6262 54.3608C50.8464 54.3608 51.0453 54.33 51.2228 54.2685C51.4028 54.2045 51.5578 54.1098 51.688 53.9844C51.8182 53.8565 51.9189 53.6979 51.9899 53.5085L52.7995 53.7358C52.7143 54.0104 52.5711 54.2519 52.3699 54.4602C52.1686 54.6662 51.92 54.8272 51.6241 54.9432C51.3282 55.0568 50.9956 55.1136 50.6262 55.1136Z" fill="#6D7478"/>
<path d="M20.7528 77V76.3608L23.1534 73.733C23.4351 73.4252 23.6671 73.1577 23.8494 72.9304C24.0317 72.7008 24.1667 72.4853 24.2543 72.2841C24.3442 72.0805 24.3892 71.8674 24.3892 71.6449C24.3892 71.3892 24.3277 71.1679 24.2045 70.9808C24.0838 70.7938 23.9181 70.6494 23.7074 70.5476C23.4967 70.4458 23.2599 70.3949 22.9972 70.3949C22.7178 70.3949 22.474 70.4529 22.2656 70.5689C22.0597 70.6825 21.8999 70.8423 21.7862 71.0483C21.675 71.2543 21.6193 71.4957 21.6193 71.7727H20.7812C20.7812 71.3466 20.8795 70.9725 21.076 70.6506C21.2725 70.3286 21.54 70.0777 21.8786 69.8977C22.2195 69.7178 22.6018 69.6278 23.0256 69.6278C23.4517 69.6278 23.8293 69.7178 24.1584 69.8977C24.4875 70.0777 24.7455 70.3203 24.9325 70.6257C25.1196 70.9311 25.2131 71.2708 25.2131 71.6449C25.2131 71.9124 25.1645 72.174 25.0675 72.4297C24.9728 72.683 24.8071 72.9659 24.5703 73.2784C24.3359 73.5885 24.0104 73.9673 23.5938 74.4148L21.9602 76.1619V76.2188H25.3409V77H20.7528ZM29.0803 77.0994C28.6636 77.0994 28.2884 77.0166 27.9545 76.8509C27.6207 76.6851 27.3532 76.4579 27.152 76.169C26.9508 75.8802 26.8407 75.5511 26.8217 75.1818H27.674C27.7071 75.5109 27.8563 75.7831 28.1214 75.9986C28.389 76.2116 28.7086 76.3182 29.0803 76.3182C29.3786 76.3182 29.6437 76.2483 29.8757 76.1087C30.1101 75.969 30.2936 75.7772 30.4261 75.5334C30.5611 75.2872 30.6286 75.009 30.6286 74.6989C30.6286 74.3816 30.5587 74.0987 30.419 73.8501C30.2817 73.5992 30.0923 73.4015 29.8509 73.2571C29.6094 73.1127 29.3336 73.0393 29.0234 73.0369C28.8009 73.0346 28.5724 73.0689 28.3381 73.1399C28.1037 73.2086 27.9107 73.2973 27.7592 73.4062L26.9354 73.3068L27.3757 69.7273H31.1541V70.5085H28.1143L27.8587 72.6534H27.9013C28.0504 72.535 28.2375 72.4368 28.4624 72.3587C28.6873 72.2805 28.9216 72.2415 29.1655 72.2415C29.6106 72.2415 30.0071 72.348 30.3551 72.5611C30.7055 72.7718 30.9801 73.0606 31.179 73.4276C31.3802 73.7945 31.4808 74.2135 31.4808 74.6847C31.4808 75.1487 31.3767 75.563 31.1683 75.9276C30.9624 76.2898 30.6783 76.5762 30.3161 76.7869C29.9538 76.9953 29.5419 77.0994 29.0803 77.0994ZM38.0762 77.0994C37.5411 77.0994 37.0854 76.9538 36.709 76.6626C36.3326 76.3691 36.0449 75.9441 35.8461 75.3878C35.6472 74.8291 35.5478 74.1544 35.5478 73.3636C35.5478 72.5777 35.6472 71.9065 35.8461 71.3501C36.0473 70.7914 36.3361 70.3653 36.7125 70.0717C37.0913 69.7758 37.5459 69.6278 38.0762 69.6278C38.6065 69.6278 39.0598 69.7758 39.4363 70.0717C39.815 70.3653 40.1039 70.7914 40.3027 71.3501C40.504 71.9065 40.6046 72.5777 40.6046 73.3636C40.6046 74.1544 40.5051 74.8291 40.3063 75.3878C40.1074 75.9441 39.8198 76.3691 39.4434 76.6626C39.0669 76.9538 38.6112 77.0994 38.0762 77.0994ZM38.0762 76.3182C38.6065 76.3182 39.0184 76.0625 39.312 75.5511C39.6055 75.0398 39.7523 74.3106 39.7523 73.3636C39.7523 72.7339 39.6848 72.1977 39.5499 71.755C39.4173 71.3123 39.2256 70.9749 38.9746 70.7429C38.726 70.5109 38.4266 70.3949 38.0762 70.3949C37.5506 70.3949 37.1399 70.6541 36.8439 71.1726C36.548 71.6887 36.4 72.419 36.4 73.3636C36.4 73.9934 36.4663 74.5284 36.5989 74.9688C36.7315 75.4091 36.9221 75.7441 37.1706 75.9737C37.4216 76.2034 37.7234 76.3182 38.0762 76.3182ZM44.3262 77.0994C43.7911 77.0994 43.3354 76.9538 42.959 76.6626C42.5826 76.3691 42.2949 75.9441 42.0961 75.3878C41.8972 74.8291 41.7978 74.1544 41.7978 73.3636C41.7978 72.5777 41.8972 71.9065 42.0961 71.3501C42.2973 70.7914 42.5861 70.3653 42.9625 70.0717C43.3413 69.7758 43.7959 69.6278 44.3262 69.6278C44.8565 69.6278 45.3098 69.7758 45.6863 70.0717C46.065 70.3653 46.3539 70.7914 46.5527 71.3501C46.754 71.9065 46.8546 72.5777 46.8546 73.3636C46.8546 74.1544 46.7551 74.8291 46.5563 75.3878C46.3574 75.9441 46.0698 76.3691 45.6934 76.6626C45.3169 76.9538 44.8612 77.0994 44.3262 77.0994ZM44.3262 76.3182C44.8565 76.3182 45.2684 76.0625 45.562 75.5511C45.8555 75.0398 46.0023 74.3106 46.0023 73.3636C46.0023 72.7339 45.9348 72.1977 45.7999 71.755C45.6673 71.3123 45.4756 70.9749 45.2246 70.7429C44.976 70.5109 44.6766 70.3949 44.3262 70.3949C43.8006 70.3949 43.3899 70.6541 43.0939 71.1726C42.798 71.6887 42.65 72.419 42.65 73.3636C42.65 73.9934 42.7163 74.5284 42.8489 74.9688C42.9815 75.4091 43.1721 75.7441 43.4206 75.9737C43.6716 76.2034 43.9734 76.3182 44.3262 76.3182ZM50.5762 77.0994C50.0411 77.0994 49.5854 76.9538 49.209 76.6626C48.8326 76.3691 48.5449 75.9441 48.3461 75.3878C48.1472 74.8291 48.0478 74.1544 48.0478 73.3636C48.0478 72.5777 48.1472 71.9065 48.3461 71.3501C48.5473 70.7914 48.8361 70.3653 49.2125 70.0717C49.5913 69.7758 50.0459 69.6278 50.5762 69.6278C51.1065 69.6278 51.5598 69.7758 51.9363 70.0717C52.315 70.3653 52.6039 70.7914 52.8027 71.3501C53.004 71.9065 53.1046 72.5777 53.1046 73.3636C53.1046 74.1544 53.0051 74.8291 52.8063 75.3878C52.6074 75.9441 52.3198 76.3691 51.9434 76.6626C51.5669 76.9538 51.1112 77.0994 50.5762 77.0994ZM50.5762 76.3182C51.1065 76.3182 51.5184 76.0625 51.812 75.5511C52.1055 75.0398 52.2523 74.3106 52.2523 73.3636C52.2523 72.7339 52.1848 72.1977 52.0499 71.755C51.9173 71.3123 51.7256 70.9749 51.4746 70.7429C51.226 70.5109 50.9266 70.3949 50.5762 70.3949C50.0506 70.3949 49.6399 70.6541 49.3439 71.1726C49.048 71.6887 48.9 72.419 48.9 73.3636C48.9 73.9934 48.9663 74.5284 49.0989 74.9688C49.2315 75.4091 49.4221 75.7441 49.6706 75.9737C49.9216 76.2034 50.2234 76.3182 50.5762 76.3182Z" fill="#6D7478"/>
<path d="M20.7528 99V98.3608L23.1534 95.733C23.4351 95.4252 23.6671 95.1577 23.8494 94.9304C24.0317 94.7008 24.1667 94.4853 24.2543 94.2841C24.3442 94.0805 24.3892 93.8674 24.3892 93.6449C24.3892 93.3892 24.3277 93.1679 24.2045 92.9808C24.0838 92.7938 23.9181 92.6494 23.7074 92.5476C23.4967 92.4458 23.2599 92.3949 22.9972 92.3949C22.7178 92.3949 22.474 92.4529 22.2656 92.5689C22.0597 92.6825 21.8999 92.8423 21.7862 93.0483C21.675 93.2543 21.6193 93.4957 21.6193 93.7727H20.7812C20.7812 93.3466 20.8795 92.9725 21.076 92.6506C21.2725 92.3286 21.54 92.0777 21.8786 91.8977C22.2195 91.7178 22.6018 91.6278 23.0256 91.6278C23.4517 91.6278 23.8293 91.7178 24.1584 91.8977C24.4875 92.0777 24.7455 92.3203 24.9325 92.6257C25.1196 92.9311 25.2131 93.2708 25.2131 93.6449C25.2131 93.9124 25.1645 94.174 25.0675 94.4297C24.9728 94.683 24.8071 94.9659 24.5703 95.2784C24.3359 95.5885 24.0104 95.9673 23.5938 96.4148L21.9602 98.1619V98.2188H25.3409V99H20.7528ZM29.1797 99.0994C28.6446 99.0994 28.1889 98.9538 27.8125 98.6626C27.4361 98.3691 27.1484 97.9441 26.9496 97.3878C26.7507 96.8291 26.6513 96.1544 26.6513 95.3636C26.6513 94.5777 26.7507 93.9065 26.9496 93.3501C27.1508 92.7914 27.4396 92.3653 27.8161 92.0717C28.1948 91.7758 28.6494 91.6278 29.1797 91.6278C29.71 91.6278 30.1634 91.7758 30.5398 92.0717C30.9186 92.3653 31.2074 92.7914 31.4062 93.3501C31.6075 93.9065 31.7081 94.5777 31.7081 95.3636C31.7081 96.1544 31.6087 96.8291 31.4098 97.3878C31.2109 97.9441 30.9233 98.3691 30.5469 98.6626C30.1705 98.9538 29.7147 99.0994 29.1797 99.0994ZM29.1797 98.3182C29.71 98.3182 30.1219 98.0625 30.4155 97.5511C30.709 97.0398 30.8558 96.3106 30.8558 95.3636C30.8558 94.7339 30.7884 94.1977 30.6534 93.755C30.5208 93.3123 30.3291 92.9749 30.0781 92.7429C29.8295 92.5109 29.5301 92.3949 29.1797 92.3949C28.6541 92.3949 28.2434 92.6541 27.9474 93.1726C27.6515 93.6887 27.5036 94.419 27.5036 95.3636C27.5036 95.9934 27.5698 96.5284 27.7024 96.9688C27.835 97.4091 28.0256 97.7441 28.2741 97.9737C28.5251 98.2034 28.8269 98.3182 29.1797 98.3182ZM38.2422 99.0994C37.7071 99.0994 37.2514 98.9538 36.875 98.6626C36.4986 98.3691 36.2109 97.9441 36.0121 97.3878C35.8132 96.8291 35.7138 96.1544 35.7138 95.3636C35.7138 94.5777 35.8132 93.9065 36.0121 93.3501C36.2133 92.7914 36.5021 92.3653 36.8786 92.0717C37.2573 91.7758 37.7119 91.6278 38.2422 91.6278C38.7725 91.6278 39.2259 91.7758 39.6023 92.0717C39.9811 92.3653 40.2699 92.7914 40.4688 93.3501C40.67 93.9065 40.7706 94.5777 40.7706 95.3636C40.7706 96.1544 40.6712 96.8291 40.4723 97.3878C40.2734 97.9441 39.9858 98.3691 39.6094 98.6626C39.233 98.9538 38.7772 99.0994 38.2422 99.0994ZM38.2422 98.3182C38.7725 98.3182 39.1844 98.0625 39.478 97.5511C39.7715 97.0398 39.9183 96.3106 39.9183 95.3636C39.9183 94.7339 39.8509 94.1977 39.7159 93.755C39.5833 93.3123 39.3916 92.9749 39.1406 92.7429C38.892 92.5109 38.5926 92.3949 38.2422 92.3949C37.7166 92.3949 37.3059 92.6541 37.0099 93.1726C36.714 93.6887 36.5661 94.419 36.5661 95.3636C36.5661 95.9934 36.6323 96.5284 36.7649 96.9688C36.8975 97.4091 37.0881 97.7441 37.3366 97.9737C37.5876 98.2034 37.8894 98.3182 38.2422 98.3182ZM44.4922 99.0994C43.9571 99.0994 43.5014 98.9538 43.125 98.6626C42.7486 98.3691 42.4609 97.9441 42.2621 97.3878C42.0632 96.8291 41.9638 96.1544 41.9638 95.3636C41.9638 94.5777 42.0632 93.9065 42.2621 93.3501C42.4633 92.7914 42.7521 92.3653 43.1286 92.0717C43.5073 91.7758 43.9619 91.6278 44.4922 91.6278C45.0225 91.6278 45.4759 91.7758 45.8523 92.0717C46.2311 92.3653 46.5199 92.7914 46.7188 93.3501C46.92 93.9065 47.0206 94.5777 47.0206 95.3636C47.0206 96.1544 46.9212 96.8291 46.7223 97.3878C46.5234 97.9441 46.2358 98.3691 45.8594 98.6626C45.483 98.9538 45.0272 99.0994 44.4922 99.0994ZM44.4922 98.3182C45.0225 98.3182 45.4344 98.0625 45.728 97.5511C46.0215 97.0398 46.1683 96.3106 46.1683 95.3636C46.1683 94.7339 46.1009 94.1977 45.9659 93.755C45.8333 93.3123 45.6416 92.9749 45.3906 92.7429C45.142 92.5109 44.8426 92.3949 44.4922 92.3949C43.9666 92.3949 43.5559 92.6541 43.2599 93.1726C42.964 93.6887 42.8161 94.419 42.8161 95.3636C42.8161 95.9934 42.8823 96.5284 43.0149 96.9688C43.1475 97.4091 43.3381 97.7441 43.5866 97.9737C43.8376 98.2034 44.1394 98.3182 44.4922 98.3182ZM50.7422 99.0994C50.2071 99.0994 49.7514 98.9538 49.375 98.6626C48.9986 98.3691 48.7109 97.9441 48.5121 97.3878C48.3132 96.8291 48.2138 96.1544 48.2138 95.3636C48.2138 94.5777 48.3132 93.9065 48.5121 93.3501C48.7133 92.7914 49.0021 92.3653 49.3786 92.0717C49.7573 91.7758 50.2119 91.6278 50.7422 91.6278C51.2725 91.6278 51.7259 91.7758 52.1023 92.0717C52.4811 92.3653 52.7699 92.7914 52.9688 93.3501C53.17 93.9065 53.2706 94.5777 53.2706 95.3636C53.2706 96.1544 53.1712 96.8291 52.9723 97.3878C52.7734 97.9441 52.4858 98.3691 52.1094 98.6626C51.733 98.9538 51.2772 99.0994 50.7422 99.0994ZM50.7422 98.3182C51.2725 98.3182 51.6844 98.0625 51.978 97.5511C52.2715 97.0398 52.4183 96.3106 52.4183 95.3636C52.4183 94.7339 52.3509 94.1977 52.2159 93.755C52.0833 93.3123 51.8916 92.9749 51.6406 92.7429C51.392 92.5109 51.0926 92.3949 50.7422 92.3949C50.2166 92.3949 49.8059 92.6541 49.5099 93.1726C49.214 93.6887 49.0661 94.419 49.0661 95.3636C49.0661 95.9934 49.1323 96.5284 49.2649 96.9688C49.3975 97.4091 49.5881 97.7441 49.8366 97.9737C50.0876 98.2034 50.3894 98.3182 50.7422 98.3182Z" fill="#6D7478"/>
<path d="M24.3097 113.727V121H23.429V114.651H23.3864L21.6108 115.83V114.935L23.429 113.727H24.3097ZM28.674 121.099C28.2573 121.099 27.8821 121.017 27.5483 120.851C27.2145 120.685 26.947 120.458 26.7457 120.169C26.5445 119.88 26.4344 119.551 26.4155 119.182H27.2678C27.3009 119.511 27.45 119.783 27.7152 119.999C27.9827 120.212 28.3023 120.318 28.674 120.318C28.9723 120.318 29.2375 120.248 29.4695 120.109C29.7038 119.969 29.8873 119.777 30.0199 119.533C30.1548 119.287 30.2223 119.009 30.2223 118.699C30.2223 118.382 30.1525 118.099 30.0128 117.85C29.8755 117.599 29.6861 117.402 29.4446 117.257C29.2031 117.113 28.9273 117.039 28.6172 117.037C28.3946 117.035 28.1662 117.069 27.9318 117.14C27.6974 117.209 27.5045 117.297 27.353 117.406L26.5291 117.307L26.9695 113.727H30.7479V114.509H27.7081L27.4524 116.653H27.495C27.6442 116.535 27.8312 116.437 28.0561 116.359C28.281 116.281 28.5154 116.241 28.7592 116.241C29.2043 116.241 29.6009 116.348 29.9489 116.561C30.2992 116.772 30.5739 117.061 30.7727 117.428C30.974 117.795 31.0746 118.214 31.0746 118.685C31.0746 119.149 30.9704 119.563 30.7621 119.928C30.5561 120.29 30.272 120.576 29.9098 120.787C29.5476 120.995 29.1357 121.099 28.674 121.099ZM37.6699 121.099C37.1349 121.099 36.6792 120.954 36.3027 120.663C35.9263 120.369 35.6387 119.944 35.4398 119.388C35.2409 118.829 35.1415 118.154 35.1415 117.364C35.1415 116.578 35.2409 115.906 35.4398 115.35C35.641 114.791 35.9299 114.365 36.3063 114.072C36.6851 113.776 37.1396 113.628 37.6699 113.628C38.2002 113.628 38.6536 113.776 39.03 114.072C39.4088 114.365 39.6976 114.791 39.8965 115.35C40.0977 115.906 40.1983 116.578 40.1983 117.364C40.1983 118.154 40.0989 118.829 39.9 119.388C39.7012 119.944 39.4135 120.369 39.0371 120.663C38.6607 120.954 38.205 121.099 37.6699 121.099ZM37.6699 120.318C38.2002 120.318 38.6122 120.062 38.9057 119.551C39.1993 119.04 39.3461 118.311 39.3461 117.364C39.3461 116.734 39.2786 116.198 39.1436 115.755C39.0111 115.312 38.8193 114.975 38.5684 114.743C38.3198 114.511 38.0203 114.395 37.6699 114.395C37.1444 114.395 36.7336 114.654 36.4377 115.173C36.1417 115.689 35.9938 116.419 35.9938 117.364C35.9938 117.993 36.0601 118.528 36.1926 118.969C36.3252 119.409 36.5158 119.744 36.7644 119.974C37.0153 120.203 37.3172 120.318 37.6699 120.318ZM43.9199 121.099C43.3849 121.099 42.9292 120.954 42.5527 120.663C42.1763 120.369 41.8887 119.944 41.6898 119.388C41.4909 118.829 41.3915 118.154 41.3915 117.364C41.3915 116.578 41.4909 115.906 41.6898 115.35C41.891 114.791 42.1799 114.365 42.5563 114.072C42.9351 113.776 43.3896 113.628 43.9199 113.628C44.4502 113.628 44.9036 113.776 45.28 114.072C45.6588 114.365 45.9476 114.791 46.1465 115.35C46.3477 115.906 46.4483 116.578 46.4483 117.364C46.4483 118.154 46.3489 118.829 46.15 119.388C45.9512 119.944 45.6635 120.369 45.2871 120.663C44.9107 120.954 44.455 121.099 43.9199 121.099ZM43.9199 120.318C44.4502 120.318 44.8622 120.062 45.1557 119.551C45.4493 119.04 45.5961 118.311 45.5961 117.364C45.5961 116.734 45.5286 116.198 45.3936 115.755C45.2611 115.312 45.0693 114.975 44.8184 114.743C44.5698 114.511 44.2703 114.395 43.9199 114.395C43.3944 114.395 42.9836 114.654 42.6877 115.173C42.3917 115.689 42.2438 116.419 42.2438 117.364C42.2438 117.993 42.3101 118.528 42.4426 118.969C42.5752 119.409 42.7658 119.744 43.0144 119.974C43.2653 120.203 43.5672 120.318 43.9199 120.318ZM50.1699 121.099C49.6349 121.099 49.1792 120.954 48.8027 120.663C48.4263 120.369 48.1387 119.944 47.9398 119.388C47.7409 118.829 47.6415 118.154 47.6415 117.364C47.6415 116.578 47.7409 115.906 47.9398 115.35C48.141 114.791 48.4299 114.365 48.8063 114.072C49.1851 113.776 49.6396 113.628 50.1699 113.628C50.7002 113.628 51.1536 113.776 51.53 114.072C51.9088 114.365 52.1976 114.791 52.3965 115.35C52.5977 115.906 52.6983 116.578 52.6983 117.364C52.6983 118.154 52.5989 118.829 52.4 119.388C52.2012 119.944 51.9135 120.369 51.5371 120.663C51.1607 120.954 50.705 121.099 50.1699 121.099ZM50.1699 120.318C50.7002 120.318 51.1122 120.062 51.4057 119.551C51.6993 119.04 51.8461 118.311 51.8461 117.364C51.8461 116.734 51.7786 116.198 51.6436 115.755C51.5111 115.312 51.3193 114.975 51.0684 114.743C50.8198 114.511 50.5203 114.395 50.1699 114.395C49.6444 114.395 49.2336 114.654 48.9377 115.173C48.6417 115.689 48.4938 116.419 48.4938 117.364C48.4938 117.993 48.5601 118.528 48.6926 118.969C48.8252 119.409 49.0158 119.744 49.2644 119.974C49.5153 120.203 49.8172 120.318 50.1699 120.318Z" fill="#6D7478"/>
<path d="M24.3097 135.727V143H23.429V136.651H23.3864L21.6108 137.83V136.935L23.429 135.727H24.3097ZM28.7734 143.099C28.2384 143.099 27.7827 142.954 27.4062 142.663C27.0298 142.369 26.7422 141.944 26.5433 141.388C26.3445 140.829 26.245 140.154 26.245 139.364C26.245 138.578 26.3445 137.906 26.5433 137.35C26.7446 136.791 27.0334 136.365 27.4098 136.072C27.7886 135.776 28.2431 135.628 28.7734 135.628C29.3037 135.628 29.7571 135.776 30.1335 136.072C30.5123 136.365 30.8011 136.791 31 137.35C31.2012 137.906 31.3018 138.578 31.3018 139.364C31.3018 140.154 31.2024 140.829 31.0036 141.388C30.8047 141.944 30.517 142.369 30.1406 142.663C29.7642 142.954 29.3085 143.099 28.7734 143.099ZM28.7734 142.318C29.3037 142.318 29.7157 142.062 30.0092 141.551C30.3028 141.04 30.4496 140.311 30.4496 139.364C30.4496 138.734 30.3821 138.198 30.2472 137.755C30.1146 137.312 29.9228 136.975 29.6719 136.743C29.4233 136.511 29.1238 136.395 28.7734 136.395C28.2479 136.395 27.8371 136.654 27.5412 137.173C27.2453 137.689 27.0973 138.419 27.0973 139.364C27.0973 139.993 27.1636 140.528 27.2962 140.969C27.4287 141.409 27.6193 141.744 27.8679 141.974C28.1188 142.203 28.4207 142.318 28.7734 142.318ZM37.8359 143.099C37.3009 143.099 36.8452 142.954 36.4688 142.663C36.0923 142.369 35.8047 141.944 35.6058 141.388C35.407 140.829 35.3075 140.154 35.3075 139.364C35.3075 138.578 35.407 137.906 35.6058 137.35C35.8071 136.791 36.0959 136.365 36.4723 136.072C36.8511 135.776 37.3056 135.628 37.8359 135.628C38.3662 135.628 38.8196 135.776 39.196 136.072C39.5748 136.365 39.8636 136.791 40.0625 137.35C40.2637 137.906 40.3643 138.578 40.3643 139.364C40.3643 140.154 40.2649 140.829 40.0661 141.388C39.8672 141.944 39.5795 142.369 39.2031 142.663C38.8267 142.954 38.371 143.099 37.8359 143.099ZM37.8359 142.318C38.3662 142.318 38.7782 142.062 39.0717 141.551C39.3653 141.04 39.5121 140.311 39.5121 139.364C39.5121 138.734 39.4446 138.198 39.3097 137.755C39.1771 137.312 38.9853 136.975 38.7344 136.743C38.4858 136.511 38.1863 136.395 37.8359 136.395C37.3104 136.395 36.8996 136.654 36.6037 137.173C36.3078 137.689 36.1598 138.419 36.1598 139.364C36.1598 139.993 36.2261 140.528 36.3587 140.969C36.4912 141.409 36.6818 141.744 36.9304 141.974C37.1813 142.203 37.4832 142.318 37.8359 142.318ZM44.0859 143.099C43.5509 143.099 43.0952 142.954 42.7188 142.663C42.3423 142.369 42.0547 141.944 41.8558 141.388C41.657 140.829 41.5575 140.154 41.5575 139.364C41.5575 138.578 41.657 137.906 41.8558 137.35C42.0571 136.791 42.3459 136.365 42.7223 136.072C43.1011 135.776 43.5556 135.628 44.0859 135.628C44.6162 135.628 45.0696 135.776 45.446 136.072C45.8248 136.365 46.1136 136.791 46.3125 137.35C46.5137 137.906 46.6143 138.578 46.6143 139.364C46.6143 140.154 46.5149 140.829 46.3161 141.388C46.1172 141.944 45.8295 142.369 45.4531 142.663C45.0767 142.954 44.621 143.099 44.0859 143.099ZM44.0859 142.318C44.6162 142.318 45.0282 142.062 45.3217 141.551C45.6153 141.04 45.7621 140.311 45.7621 139.364C45.7621 138.734 45.6946 138.198 45.5597 137.755C45.4271 137.312 45.2353 136.975 44.9844 136.743C44.7358 136.511 44.4363 136.395 44.0859 136.395C43.5604 136.395 43.1496 136.654 42.8537 137.173C42.5578 137.689 42.4098 138.419 42.4098 139.364C42.4098 139.993 42.4761 140.528 42.6087 140.969C42.7412 141.409 42.9318 141.744 43.1804 141.974C43.4313 142.203 43.7332 142.318 44.0859 142.318ZM50.3359 143.099C49.8009 143.099 49.3452 142.954 48.9688 142.663C48.5923 142.369 48.3047 141.944 48.1058 141.388C47.907 140.829 47.8075 140.154 47.8075 139.364C47.8075 138.578 47.907 137.906 48.1058 137.35C48.3071 136.791 48.5959 136.365 48.9723 136.072C49.3511 135.776 49.8056 135.628 50.3359 135.628C50.8662 135.628 51.3196 135.776 51.696 136.072C52.0748 136.365 52.3636 136.791 52.5625 137.35C52.7637 137.906 52.8643 138.578 52.8643 139.364C52.8643 140.154 52.7649 140.829 52.5661 141.388C52.3672 141.944 52.0795 142.369 51.7031 142.663C51.3267 142.954 50.871 143.099 50.3359 143.099ZM50.3359 142.318C50.8662 142.318 51.2782 142.062 51.5717 141.551C51.8653 141.04 52.0121 140.311 52.0121 139.364C52.0121 138.734 51.9446 138.198 51.8097 137.755C51.6771 137.312 51.4853 136.975 51.2344 136.743C50.9858 136.511 50.6863 136.395 50.3359 136.395C49.8104 136.395 49.3996 136.654 49.1037 137.173C48.8078 137.689 48.6598 138.419 48.6598 139.364C48.6598 139.993 48.7261 140.528 48.8587 140.969C48.9912 141.409 49.1818 141.744 49.4304 141.974C49.6813 142.203 49.9832 142.318 50.3359 142.318Z" fill="#6D7478"/>
<path d="M32.0256 165.099C31.6089 165.099 31.2337 165.017 30.8999 164.851C30.5661 164.685 30.2985 164.458 30.0973 164.169C29.8961 163.88 29.786 163.551 29.767 163.182H30.6193C30.6525 163.511 30.8016 163.783 31.0668 163.999C31.3343 164.212 31.6539 164.318 32.0256 164.318C32.3239 164.318 32.589 164.248 32.821 164.109C33.0554 163.969 33.2389 163.777 33.3714 163.533C33.5064 163.287 33.5739 163.009 33.5739 162.699C33.5739 162.382 33.504 162.099 33.3643 161.85C33.227 161.599 33.0376 161.402 32.7962 161.257C32.5547 161.113 32.2789 161.039 31.9688 161.037C31.7462 161.035 31.5178 161.069 31.2834 161.14C31.049 161.209 30.8561 161.297 30.7045 161.406L29.8807 161.307L30.321 157.727H34.0994V158.509H31.0597L30.804 160.653H30.8466C30.9957 160.535 31.1828 160.437 31.4077 160.359C31.6326 160.281 31.867 160.241 32.1108 160.241C32.5559 160.241 32.9524 160.348 33.3004 160.561C33.6508 160.772 33.9254 161.061 34.1243 161.428C34.3255 161.795 34.4261 162.214 34.4261 162.685C34.4261 163.149 34.322 163.563 34.1136 163.928C33.9077 164.29 33.6236 164.576 33.2614 164.787C32.8991 164.995 32.4872 165.099 32.0256 165.099ZM38.209 165.099C37.6739 165.099 37.2182 164.954 36.8418 164.663C36.4654 164.369 36.1777 163.944 35.9789 163.388C35.78 162.829 35.6806 162.154 35.6806 161.364C35.6806 160.578 35.78 159.906 35.9789 159.35C36.1801 158.791 36.4689 158.365 36.8453 158.072C37.2241 157.776 37.6787 157.628 38.209 157.628C38.7393 157.628 39.1926 157.776 39.5691 158.072C39.9479 158.365 40.2367 158.791 40.4355 159.35C40.6368 159.906 40.7374 160.578 40.7374 161.364C40.7374 162.154 40.638 162.829 40.4391 163.388C40.2402 163.944 39.9526 164.369 39.5762 164.663C39.1998 164.954 38.744 165.099 38.209 165.099ZM38.209 164.318C38.7393 164.318 39.1512 164.062 39.4448 163.551C39.7383 163.04 39.8851 162.311 39.8851 161.364C39.8851 160.734 39.8176 160.198 39.6827 159.755C39.5501 159.312 39.3584 158.975 39.1074 158.743C38.8588 158.511 38.5594 158.395 38.209 158.395C37.6834 158.395 37.2727 158.654 36.9767 159.173C36.6808 159.689 36.5328 160.419 36.5328 161.364C36.5328 161.993 36.5991 162.528 36.7317 162.969C36.8643 163.409 37.0549 163.744 37.3034 163.974C37.5544 164.203 37.8562 164.318 38.209 164.318ZM44.459 165.099C43.9239 165.099 43.4682 164.954 43.0918 164.663C42.7154 164.369 42.4277 163.944 42.2289 163.388C42.03 162.829 41.9306 162.154 41.9306 161.364C41.9306 160.578 42.03 159.906 42.2289 159.35C42.4301 158.791 42.7189 158.365 43.0953 158.072C43.4741 157.776 43.9287 157.628 44.459 157.628C44.9893 157.628 45.4426 157.776 45.8191 158.072C46.1979 158.365 46.4867 158.791 46.6855 159.35C46.8868 159.906 46.9874 160.578 46.9874 161.364C46.9874 162.154 46.888 162.829 46.6891 163.388C46.4902 163.944 46.2026 164.369 45.8262 164.663C45.4498 164.954 44.994 165.099 44.459 165.099ZM44.459 164.318C44.9893 164.318 45.4012 164.062 45.6948 163.551C45.9883 163.04 46.1351 162.311 46.1351 161.364C46.1351 160.734 46.0676 160.198 45.9327 159.755C45.8001 159.312 45.6084 158.975 45.3574 158.743C45.1088 158.511 44.8094 158.395 44.459 158.395C43.9334 158.395 43.5227 158.654 43.2267 159.173C42.9308 159.689 42.7828 160.419 42.7828 161.364C42.7828 161.993 42.8491 162.528 42.9817 162.969C43.1143 163.409 43.3049 163.744 43.5534 163.974C43.8044 164.203 44.1062 164.318 44.459 164.318ZM50.709 165.099C50.1739 165.099 49.7182 164.954 49.3418 164.663C48.9654 164.369 48.6777 163.944 48.4789 163.388C48.28 162.829 48.1806 162.154 48.1806 161.364C48.1806 160.578 48.28 159.906 48.4789 159.35C48.6801 158.791 48.9689 158.365 49.3453 158.072C49.7241 157.776 50.1787 157.628 50.709 157.628C51.2393 157.628 51.6926 157.776 52.0691 158.072C52.4479 158.365 52.7367 158.791 52.9355 159.35C53.1368 159.906 53.2374 160.578 53.2374 161.364C53.2374 162.154 53.138 162.829 52.9391 163.388C52.7402 163.944 52.4526 164.369 52.0762 164.663C51.6998 164.954 51.244 165.099 50.709 165.099ZM50.709 164.318C51.2393 164.318 51.6512 164.062 51.9448 163.551C52.2383 163.04 52.3851 162.311 52.3851 161.364C52.3851 160.734 52.3176 160.198 52.1827 159.755C52.0501 159.312 51.8584 158.975 51.6074 158.743C51.3588 158.511 51.0594 158.395 50.709 158.395C50.1834 158.395 49.7727 158.654 49.4767 159.173C49.1808 159.689 49.0328 160.419 49.0328 161.364C49.0328 161.993 49.0991 162.528 49.2317 162.969C49.3643 163.409 49.5549 163.744 49.8034 163.974C50.0544 164.203 50.3562 164.318 50.709 164.318Z" fill="#6D7478"/>
</svg>
