<svg width="30" height="30" viewBox="0 0 30 30" fill="none" xmlns="http://www.w3.org/2000/svg">
<circle cx="15" cy="15" r="15" fill="#FBEDBF"/>
<path d="M12.0583 8.99809C11.9243 8.85966 11.757 8.75809 11.5723 8.7032C11.3877 8.6483 11.192 8.64193 11.0042 8.6847C10.8179 8.72816 10.6451 8.8167 10.5011 8.94255C10.357 9.06839 10.2461 9.22769 10.178 9.40645L5.06876 23.471C4.99447 23.6751 4.98003 23.8961 5.02714 24.1081C5.07425 24.3201 5.18095 24.5142 5.33467 24.6676C5.43902 24.773 5.56326 24.8567 5.7002 24.9138C5.83714 24.9708 5.98404 25.0001 6.13239 25C6.2682 25.0012 6.40317 24.9787 6.53125 24.9335L20.5958 19.8243C20.7746 19.7562 20.9339 19.6452 21.0597 19.5012C21.1855 19.3571 21.2741 19.1844 21.3175 18.9981C21.3613 18.8103 21.3554 18.6143 21.3004 18.4295C21.2455 18.2447 21.1434 18.0774 21.0042 17.9439L12.0583 8.99809ZM11.6499 22.2649L7.73732 18.3523L9.27578 14.1263L15.876 20.7265L11.6499 22.2649ZM6.26534 24.2212C6.1978 24.245 6.12492 24.2491 6.05512 24.2333C5.98531 24.2174 5.92141 24.1821 5.87079 24.1315C5.82016 24.0808 5.78487 24.0169 5.76899 23.9471C5.75311 23.8773 5.75728 23.8044 5.78101 23.7369L7.45243 19.1405L10.8617 22.5498L6.26534 24.2212ZM20.5768 18.8271C20.5643 18.891 20.5348 18.9504 20.4913 18.9989C20.4478 19.0474 20.3921 19.0832 20.3299 19.1025L16.6642 20.4416L9.56068 13.3381L10.8997 9.67235C10.9191 9.61018 10.9549 9.5544 11.0034 9.51093C11.0519 9.46746 11.1112 9.43792 11.1751 9.42544C11.2377 9.4118 11.3028 9.41422 11.3642 9.43248C11.4257 9.45075 11.4815 9.48426 11.5265 9.5299L20.4723 18.4758C20.518 18.5208 20.5515 18.5766 20.5698 18.638C20.588 18.6994 20.5904 18.7645 20.5768 18.8271ZM22.723 6.1396C22.723 7.06077 22.1627 8.79866 20.064 8.79866C19.2758 8.79866 18.7155 9.11205 18.4116 9.72933C18.2648 10.0323 18.1808 10.3618 18.1647 10.698C18.1647 10.7987 18.1246 10.8954 18.0534 10.9666C17.9822 11.0378 17.8855 11.0779 17.7848 11.0779C17.684 11.0779 17.5874 11.0378 17.5162 10.9666C17.4449 10.8954 17.4049 10.7987 17.4049 10.698C17.4176 10.2431 17.5277 9.79618 17.7278 9.38745C18.0412 8.77017 18.6965 8.03893 20.064 8.03893C21.8968 8.03893 21.9633 6.32953 21.9633 6.1396C21.9633 6.03885 22.0033 5.94223 22.0746 5.87099C22.1458 5.79975 22.2424 5.75973 22.3432 5.75973C22.4439 5.75973 22.5405 5.79975 22.6118 5.87099C22.683 5.94223 22.723 6.03885 22.723 6.1396ZM15.1257 7.65906V5.37987C15.1257 5.27912 15.1657 5.1825 15.237 5.11126C15.3082 5.04002 15.4048 5 15.5056 5C15.6063 5 15.703 5.04002 15.7742 5.11126C15.8454 5.1825 15.8855 5.27912 15.8855 5.37987V7.65906C15.8855 7.75981 15.8454 7.85643 15.7742 7.92767C15.703 7.99891 15.6063 8.03893 15.5056 8.03893C15.4048 8.03893 15.3082 7.99891 15.237 7.92767C15.1657 7.85643 15.1257 7.75981 15.1257 7.65906ZM24.1285 15.7502C24.1642 15.7847 24.1925 15.8261 24.2118 15.8717C24.2311 15.9174 24.2411 15.9665 24.2411 16.0161C24.2411 16.0657 24.2311 16.1148 24.2118 16.1605C24.1925 16.2062 24.1642 16.2475 24.1285 16.282C24.094 16.3176 24.0527 16.3459 24.007 16.3653C23.9613 16.3846 23.9122 16.3946 23.8626 16.3946C23.813 16.3946 23.7639 16.3846 23.7183 16.3653C23.6726 16.3459 23.6313 16.3176 23.5967 16.282L22.0773 14.7626C22.0224 14.6894 21.9958 14.5989 22.0023 14.5077C22.0087 14.4165 22.0479 14.3307 22.1126 14.266C22.1772 14.2014 22.263 14.1622 22.3542 14.1557C22.4454 14.1492 22.5359 14.1759 22.6091 14.2307L24.1285 15.7502ZM24.7458 11.0589L22.4666 11.8186L22.3432 11.8376C22.2641 11.8366 22.1872 11.8115 22.1228 11.7657C22.0583 11.7199 22.0093 11.6555 21.9823 11.5812C21.9659 11.5338 21.959 11.4836 21.9621 11.4336C21.9651 11.3835 21.9781 11.3346 22.0001 11.2896C22.0222 11.2445 22.053 11.2043 22.0907 11.1713C22.1283 11.1382 22.1722 11.1129 22.2197 11.0969L24.4989 10.3371C24.5946 10.3044 24.6994 10.311 24.7903 10.3555C24.8811 10.4 24.9505 10.4788 24.9832 10.5745C25.016 10.6702 25.0094 10.775 24.9648 10.8659C24.9203 10.9567 24.8415 11.0261 24.7458 11.0589Z" fill="#010C10"/>
</svg>
