<svg width="35" height="32" viewBox="0 0 35 32" fill="none" xmlns="http://www.w3.org/2000/svg">
<path d="M1 11.8862C1 10.0161 2.51607 8.5 4.38624 8.5V8.5C5.67975 8.5 6.86026 7.7631 7.42839 6.60103L9.07001 3.24316C9.60334 2.15227 9.87 1.60682 10.3561 1.30341C10.8421 1 11.4493 1 12.6635 1H22.3365C23.5507 1 24.1579 1 24.6439 1.30341C25.13 1.60682 25.3967 2.15227 25.93 3.24316L27.5716 6.60103C28.1397 7.7631 29.3202 8.5 30.6138 8.5V8.5C32.4839 8.5 34 10.0161 34 11.8862V25C34 27.8284 34 29.2426 33.1213 30.1213C32.2426 31 30.8284 31 28 31H7C4.17157 31 2.75736 31 1.87868 30.1213C1 29.2426 1 27.8284 1 25V11.8862Z" stroke="#086788" stroke-width="2"/>
<path d="M23.8328 17.875C23.8328 21.4862 20.9762 24.375 17.4995 24.375C14.0227 24.375 11.1661 21.4862 11.1661 17.875C11.1661 14.2638 14.0227 11.375 17.4995 11.375C20.9762 11.375 23.8328 14.2638 23.8328 17.875Z" stroke="#086788" stroke-width="2"/>
</svg>
